<svg xmlns="http://www.w3.org/2000/svg" xmlns:xlink="http://www.w3.org/1999/xlink" xmlns:lucid="lucid" width="887" height="1761"><g transform="translate(-560 0)" lucid:page-tab-id="0_0"><path d="M0 0h2320v1903.78H0z" fill="#fff"/><path d="M820 180c0 11.05-8.95 20-20 20s-20-8.95-20-20 8.95-20 20-20 20 8.95 20 20z" stroke="#333"/><path d="M600 76.6V48c0-4.42 3.58-8 8-8h784c4.42 0 8 3.58 8 8v28.6zM600 116.6v-40h400v40M1000 116.6v-40h400v40" stroke="#333" fill="#fff"/><path d="M1000 1721.16H608c-4.42 0-8-3.58-8-8V116.6h400zM1400 116.6v1596.56c0 4.42-3.58 8-8 8h-392V116.6z" stroke="#333" fill="none"/><use xlink:href="#a" transform="matrix(1,0,0,1,600,76.6) translate(100.67499999999998 23.6)"/><use xlink:href="#b" transform="matrix(1,0,0,1,600,76.6) translate(242.475 23.6)"/><use xlink:href="#c" transform="matrix(1,0,0,1,1000,76.6) translate(161.525 23.6)"/><path d="M794.34 577.37c3.13-3.12 8.2-3.12 11.32 0l8.68 8.7c3.13 3.12 3.13 8.18 0 11.3l-8.68 8.7c-3.13 3.12-8.2 3.12-11.32 0l-8.68-8.7c-3.13-3.12-3.13-8.18 0-11.3zM636 740c-8.84 0-16 7.16-16 16v51.44c0 8.83 7.16 16 16 16h48c8.84 0 16-7.17 16-16V756c0-8.84-7.16-16-16-16z" stroke="#333" fill="#fff"/><use xlink:href="#d" transform="matrix(1,0,0,1,628,748) translate(1.0249999999999986 26.799999999999997)"/><use xlink:href="#e" transform="matrix(1,0,0,1,628,748) translate(-1.9750000000000014 48.4)"/><path d="M800.5 723.12h-1v-55.57h1zm0-77.17h-1V609.4h1z" fill="#333"/><path d="M800.5 609.42h-1v-.58l.5.07.5-.06zM800 737.88l-4.64-14.26h9.28z" fill="#333"/><path d="M800 739.5l-5.32-16.38h10.64zm-3.95-15.38l3.95 12.14 3.95-12.14z" fill="#333"/><use xlink:href="#f" transform="matrix(1,0,0,1,757.575,645.9537720758236) translate(0.005000000000002558 14.4)"/><use xlink:href="#g" transform="matrix(1,0,0,1,757.575,645.9537720758236) translate(35.955000000000005 14.4)"/><path d="M660.5 723.12h-1v-56.67h1zm121.8-130.9H672.04l-3 .4-2.77 1.14-2.4 1.83-1.82 2.38-1.14 2.75-.4 3.02v41.1h-1V603.7l.42-3.23 1.24-3 2-2.6 2.6-2 3-1.23 3.2-.42h110.35z" fill="#333"/><path d="M782.8 591.72l.08.5h-.58v-1h.58zM660 737.88l-4.64-14.26h9.28z" fill="#333"/><path d="M660 739.5l-5.32-16.38h10.64zm-3.95-15.38l3.95 12.14 3.95-12.14z" fill="#333"/><use xlink:href="#h" transform="matrix(1,0,0,1,613.55,644.851836216636) translate(0.005000000000002558 14.4)"/><use xlink:href="#i" transform="matrix(1,0,0,1,613.55,644.851836216636) translate(37.955000000000005 14.4)"/><path d="M940.5 737.97l.4 3 1.14 2.77 1.83 2.4 2.4 1.82 2.75 1.14 3 .4h350.62l3.2.42 3 1.24 2.6 2 2 2.6 1.25 3 .4 3.2v251.97h-1v-251.9l-.4-3-1.13-2.77-1.83-2.4-2.4-1.82-2.75-1.14-3.02-.4h-350.6l-3.22-.42-3-1.24-2.6-2-2-2.6-1.24-3-.42-3.2v-70.5h1zm-9.26-146.33l3 1.24 2.6 2 2 2.6 1.24 3 .42 3.2v42.27h-1v-42.2l-.4-3.02-1.14-2.75-1.83-2.4-2.4-1.82-2.75-1.15-3-.38h-110.3v-1h110.35z" fill="#333"/><path d="M817.7 592.22h-.58l.07-.5-.08-.5h.58zM1314.6 1028.7l-4.63-14.27h9.27z" fill="#333"/><path d="M1314.6 1030.3l-5.3-16.37h10.63zm-3.94-15.37l3.95 12.14 3.96-12.14z" fill="#333"/><use xlink:href="#j" transform="matrix(1,0,0,1,913.55,645.9537720758236) translate(0.004999999999999005 14.4)"/><path d="M777.5 877.72c-8.28 0-15 6.7-15 15v53.43c0 8.3 6.72 15 15 15h45c8.28 0 15-6.7 15-15v-53.43c0-8.3-6.72-15-15-15z" stroke="#333" fill="#fff"/><use xlink:href="#k" transform="matrix(1,0,0,1,770.5,885.7180430912215) translate(4.524999999999999 16)"/><use xlink:href="#l" transform="matrix(1,0,0,1,770.5,885.7180430912215) translate(7.049999999999997 37.6)"/><use xlink:href="#m" transform="matrix(1,0,0,1,770.5,885.7180430912215) translate(5.049999999999997 59.2)"/><path d="M800 824.44v36.4" stroke="#333" fill="none"/><path d="M800.5 824.45h-1v-.5h1z" fill="#333"/><path d="M800 875.6l-4.64-14.27h9.28z" stroke="#333" fill="#333"/><path d="M771.7 740c-9.23 0-16.7 7.47-16.7 16.7v50.05c0 9.2 7.47 16.7 16.7 16.7h56.6c9.23 0 16.7-7.5 16.7-16.7V756.7c0-9.23-7.47-16.7-16.7-16.7z" stroke="#333" fill="#fff"/><use xlink:href="#d" transform="matrix(1,0,0,1,763,748) translate(6.024999999999999 26.799999999999997)"/><use xlink:href="#e" transform="matrix(1,0,0,1,763,748) translate(3.0249999999999986 48.4)"/><path d="M1280 1020c-11.05 0-20 8.95-20 20v80c0 11.05 8.95 20 20 20h60c11.05 0 20-8.95 20-20v-80c0-11.05-8.95-20-20-20z" stroke="#333" fill="#fff"/><use xlink:href="#n" transform="matrix(1,0,0,1,1268,1028) translate(13.815740740740743 22.17777777777778)"/><use xlink:href="#o" transform="matrix(1,0,0,1,1268,1028) translate(14.90771604938272 38.44444444444444)"/><use xlink:href="#p" transform="matrix(1,0,0,1,1268,1028) translate(10.690432098765434 54.71111111111111)"/><use xlink:href="#q" transform="matrix(1,0,0,1,1268,1028) translate(43.78858024691358 54.71111111111111)"/><use xlink:href="#r" transform="matrix(1,0,0,1,1268,1028) translate(4.044444444444444 70.97777777777777)"/><use xlink:href="#s" transform="matrix(1,0,0,1,1268,1028) translate(46.895061728395056 70.97777777777777)"/><use xlink:href="#t" transform="matrix(1,0,0,1,1268,1028) translate(64.96913580246914 70.97777777777777)"/><use xlink:href="#u" transform="matrix(1,0,0,1,1268,1028) translate(13.025000000000002 87.24444444444445)"/><path d="M1170 860c-11.05 0-20 8.95-20 20v80c0 11.05 8.95 20 20 20h60c11.05 0 20-8.95 20-20v-80c0-11.05-8.95-20-20-20z" stroke="#333" fill="#fff"/><use xlink:href="#v" transform="matrix(1,0,0,1,1158,868) translate(7.414506172839509 14.044444444444448)"/><use xlink:href="#w" transform="matrix(1,0,0,1,1158,868) translate(57.04290123456789 14.044444444444448)"/><use xlink:href="#x" transform="matrix(1,0,0,1,1158,868) translate(10.069135802469141 30.311111111111114)"/><use xlink:href="#y" transform="matrix(1,0,0,1,1158,868) translate(46.89506172839506 30.311111111111114)"/><use xlink:href="#z" transform="matrix(1,0,0,1,1158,868) translate(17.581172839506173 46.57777777777778)"/><use xlink:href="#A" transform="matrix(1,0,0,1,1158,868) translate(16.03734567901235 62.84444444444445)"/><use xlink:href="#B" transform="matrix(1,0,0,1,1158,868) translate(53.65401234567901 62.84444444444445)"/><use xlink:href="#C" transform="matrix(1,0,0,1,1158,868) translate(7.037962962962965 79.11111111111111)"/><use xlink:href="#D" transform="matrix(1,0,0,1,1158,868) translate(47.62932098765432 79.11111111111111)"/><use xlink:href="#E" transform="matrix(1,0,0,1,1158,868) translate(27.239506172839505 95.37777777777778)"/><path d="M1060 1020c-11.05 0-20 8.95-20 20v80c0 11.05 8.95 20 20 20h60c11.05 0 20-8.95 20-20v-80c0-11.05-8.95-20-20-20z" stroke="#333" fill="#fff"/><use xlink:href="#F" transform="matrix(1,0,0,1,1048,1028) translate(15.303086419753093 14.044444444444448)"/><use xlink:href="#o" transform="matrix(1,0,0,1,1048,1028) translate(14.90771604938272 30.311111111111114)"/><use xlink:href="#G" transform="matrix(1,0,0,1,1048,1028) translate(16.865740740740744 46.57777777777778)"/><use xlink:href="#t" transform="matrix(1,0,0,1,1048,1028) translate(52.14783950617284 46.57777777777778)"/><use xlink:href="#H" transform="matrix(1,0,0,1,1048,1028) translate(3.649074074074079 62.84444444444445)"/><use xlink:href="#D" transform="matrix(1,0,0,1,1048,1028) translate(51.01820987654321 62.84444444444445)"/><use xlink:href="#I" transform="matrix(1,0,0,1,1048,1028) translate(1.6533950617283963 79.11111111111111)"/><use xlink:href="#J" transform="matrix(1,0,0,1,1048,1028) translate(13.702777777777778 79.11111111111111)"/><use xlink:href="#q" transform="matrix(1,0,0,1,1048,1028) translate(52.82561728395061 79.11111111111111)"/><use xlink:href="#K" transform="matrix(1,0,0,1,1048,1028) translate(2.48179012345679 95.37777777777778)"/><use xlink:href="#L" transform="matrix(1,0,0,1,1048,1028) translate(30.345987654320986 95.37777777777778)"/><path d="M734.34 1265.66c3.13-3.13 8.2-3.13 11.32 0l8.68 8.68c3.13 3.13 3.13 8.2 0 11.32l-8.68 8.68c-3.13 3.13-8.2 3.13-11.32 0l-8.68-8.68c-3.13-3.13-3.13-8.2 0-11.32z" stroke="#333" fill="#fff"/><path d="M1090 1141v27.5c0 6.63-5.37 12-12 12H694.8c-6.62 0-12 5.37-12 12v75.5c0 6.63 5.38 12 12 12h11.63" stroke="#333" fill="none"/><path d="M1090.5 1141h-1v-.5h1z" fill="#333"/><path d="M721.2 1280l-14.27 4.64v-9.28z" stroke="#333" fill="#333"/><path d="M1200 981v227c0 6.63-5.37 12-12 12H752c-6.63 0-12 5.37-12 12v14.43" stroke="#333" fill="none"/><path d="M1200.5 981h-1v-.5h1z" fill="#333"/><path d="M740 1261.2l-4.64-14.27h9.28z" stroke="#333" fill="#333"/><path d="M1310 1141v127c0 6.63-5.37 12-12 12H773.57" stroke="#333" fill="none"/><path d="M1310.5 1141h-1v-.5h1z" fill="#333"/><path d="M758.8 1280l14.27-4.64v9.28z" stroke="#333" fill="#333"/><path d="M707 1463.3c-6.63 0-12 5.36-12 12v36c0 6.62 5.37 12 12 12h66c6.63 0 12-5.38 12-12v-36c0-6.64-5.37-12-12-12z" stroke="#333" fill="#fff"/><use xlink:href="#M" transform="matrix(1,0,0,1,703,1471.2918674635623) translate(7.574999999999996 14.799999999999999)"/><use xlink:href="#N" transform="matrix(1,0,0,1,703,1471.2918674635623) translate(1.0499999999999972 36.4)"/><path d="M872.66 1460c-7 0-12.66 5.67-12.66 12.66v37.97c0 7 5.67 12.66 12.66 12.66h74.68c7 0 12.66-5.68 12.66-12.67v-37.97c0-7-5.67-12.66-12.66-12.66z" stroke="#333" fill="#fff"/><use xlink:href="#O" transform="matrix(1,0,0,1,868,1468) translate(9.049999999999997 16.799999999999997)"/><use xlink:href="#P" transform="matrix(1,0,0,1,868,1468) translate(37 16.799999999999997)"/><use xlink:href="#Q" transform="matrix(1,0,0,1,868,1468) translate(0.5999999999999943 38.4)"/><use xlink:href="#R" transform="matrix(1,0,0,1,868,1468) translate(24.549999999999997 38.4)"/><path d="M734.34 1345.66c3.13-3.13 8.2-3.13 11.32 0l8.68 8.68c3.13 3.13 3.13 8.2 0 11.32l-8.68 8.68c-3.13 3.13-8.2 3.13-11.32 0l-8.68-8.68c-3.13-3.13-3.13-8.2 0-11.32z" stroke="#333" fill="#fff"/><path d="M901.24 1359.92l3 1.24 2.6 2 2 2.6 1.24 3 .42 3.2v71.16h-1v-71.1l-.4-3-1.14-2.76-1.83-2.4-2.4-1.82-2.75-1.14-.16-.03v-1zm-143.55.58v-1h108.17v1z" fill="#333"/><path d="M757.7 1360.5h-.58l.07-.5-.08-.5h.58zM910 1457.88l-4.64-14.26h9.28z" fill="#333"/><path d="M910 1459.5l-5.32-16.38h10.64zm-3.95-15.38l3.95 12.14 3.95-12.14z" fill="#333"/><use xlink:href="#S" transform="matrix(1,0,0,1,865.8702880457149,1349.2) translate(0.004999999999999005 14.4)"/><path d="M740 1297.7v28.73" stroke="#333" fill="none"/><path d="M740.5 1297.7h-1v-.58l.5.07.5-.08z" fill="#333"/><path d="M740 1341.2l-4.64-14.27h9.28z" stroke="#333" fill="#333"/><path d="M740.5 1446.4h-1v-28.34h1zm0-49.94h-1v-18.77h1z" fill="#333"/><path d="M740.5 1377.7h-1v-.58l.5.07.5-.08zM740 1461.17l-4.64-14.26h9.28z" fill="#333"/><path d="M740 1462.8l-5.32-16.4h10.64zm-3.95-15.4l3.95 12.16 3.95-12.15z" fill="#333"/><g><use xlink:href="#T" transform="matrix(1,0,0,1,681.075,1396.4567617201421) translate(0.005000000000002558 14.4)"/><use xlink:href="#U" transform="matrix(1,0,0,1,681.075,1396.4567617201421) translate(42.955000000000005 14.4)"/></g><path d="M734.34 1585.66c3.13-3.13 8.2-3.13 11.32 0l8.68 8.68c3.13 3.13 3.13 8.2 0 11.32l-8.68 8.68c-3.13 3.13-8.2 3.13-11.32 0l-8.68-8.68c-3.13-3.13-3.13-8.2 0-11.32z" stroke="#333" fill="#fff"/><path d="M740 1524.3v42.13" stroke="#333" fill="none"/><path d="M740.5 1524.3h-1v-.5h1z" fill="#333"/><path d="M740 1581.2l-4.64-14.27h9.28z" stroke="#333" fill="#333"/><path d="M910 1524.3v63.7c0 6.63-5.37 12-12 12H773.57" stroke="#333" fill="none"/><path d="M910.5 1524.3h-1v-.5h1z" fill="#333"/><path d="M758.8 1600l14.27-4.64v9.28z" stroke="#333" fill="#333"/><path d="M760 1680c0 11.05-8.95 20-20 20s-20-8.95-20-20 8.95-20 20-20 20 8.95 20 20z" stroke="#333" fill="#fff"/><path d="M752 1680c0 6.63-5.37 12-12 12s-12-5.37-12-12 5.37-12 12-12 12 5.37 12 12z" stroke="#333"/><path d="M740 1617.7v25.42" stroke="#333" fill="none"/><path d="M740.5 1617.7h-1v-.58l.5.07.5-.08z" fill="#333"/><path d="M740 1657.88l-4.64-14.26h9.28z" stroke="#333" fill="#333"/><path d="M838.5 919.44h154.97c.15 0 .28.12.28.28 0 .15.13.28.28.28h139.1" stroke="#333" fill="none"/><path d="M838.5 919.94h-.5v-1h.5z" fill="#333"/><path d="M1147.88 920l-14.26 4.64v-9.28z" stroke="#333" fill="#333"/><path d="M660 824.44V1068c0 6.63 5.37 12 12 12h351.12" stroke="#333" fill="none"/><path d="M660.5 824.45h-1v-.5h1z" fill="#333"/><path d="M1037.88 1080l-14.26 4.64v-9.28z" stroke="#333" fill="#333"/><path d="M777.5 268.28c-8.28 0-15 6.72-15 15v53.44c0 8.28 6.72 15 15 15h45c8.28 0 15-6.72 15-15v-53.44c0-8.28-6.72-15-15-15z" stroke="#333" fill="#fff"/><g><use xlink:href="#d" transform="matrix(1,0,0,1,770.5,276.28195690877857) translate(-1.4750000000000014 16)"/><use xlink:href="#V" transform="matrix(1,0,0,1,770.5,276.28195690877857) translate(9.899999999999999 37.6)"/><use xlink:href="#W" transform="matrix(1,0,0,1,770.5,276.28195690877857) translate(3.5500000000000007 59.2)"/></g><path d="M736 420c-8.84 0-16 7.16-16 16v48c0 8.84 7.16 16 16 16h128c8.84 0 16-7.16 16-16v-48c0-8.84-7.16-16-16-16z" stroke="#333" fill="#fff"/><g><use xlink:href="#X" transform="matrix(1,0,0,1,728,428) translate(19.25 14.4)"/><use xlink:href="#Y" transform="matrix(1,0,0,1,728,428) translate(86.2 14.4)"/><use xlink:href="#Z" transform="matrix(1,0,0,1,728,428) translate(6.074999999999989 36)"/><use xlink:href="#aa" transform="matrix(1,0,0,1,728,428) translate(50.02499999999999 36)"/><use xlink:href="#ab" transform="matrix(1,0,0,1,728,428) translate(82.975 36)"/><use xlink:href="#ac" transform="matrix(1,0,0,1,728,428) translate(0.14999999999999147 57.6)"/><use xlink:href="#ad" transform="matrix(1,0,0,1,728,428) translate(48.05 57.6)"/><use xlink:href="#ae" transform="matrix(1,0,0,1,728,428) translate(69 57.6)"/><use xlink:href="#af" transform="matrix(1,0,0,1,728,428) translate(99.95 57.6)"/></g><path d="M800 201v50.4" stroke="#333" fill="none"/><path d="M799.98 200.5l.52-.02v.53h-1v-.56z" fill="#333"/><path d="M800 266.16l-4.64-14.26h9.28z" stroke="#333" fill="#333"/><path d="M800 352.72v50.4" stroke="#333" fill="none"/><path d="M800.5 352.73h-1v-.5h1z" fill="#333"/><path d="M800 417.88l-4.64-14.26h9.28z" stroke="#333" fill="#333"/><path d="M800 501v57.14" stroke="#333" fill="none"/><path d="M800.5 501h-1v-.5h1z" fill="#333"/><path d="M800 572.9l-4.64-14.26h9.28z" stroke="#333" fill="#333"/><defs><path fill="#333" d="M240 0l2-218c-23 76-54 145-80 218h-23L58-218 59 0H30v-248h44l77 211c21-75 51-140 76-211h43V0h-30" id="ag"/><path fill="#333" d="M141-36C126-15 110 5 73 4 37 3 15-17 15-53c-1-64 63-63 125-63 3-35-9-54-41-54-24 1-41 7-42 31l-33-3c5-37 33-52 76-52 45 0 72 20 72 64v82c-1 20 7 32 28 27v20c-31 9-61-2-59-35zM48-53c0 20 12 33 32 33 41-3 63-29 60-74-43 2-92-5-92 41" id="ah"/><path fill="#333" d="M117-194c89-4 53 116 60 194h-32v-121c0-31-8-49-39-48C34-167 62-67 57 0H25l-1-190h30c1 10-1 24 2 32 11-22 29-35 61-36" id="ai"/><path fill="#333" d="M177-190C167-65 218 103 67 71c-23-6-38-20-44-43l32-5c15 47 100 32 89-28v-30C133-14 115 1 83 1 29 1 15-40 15-95c0-56 16-97 71-98 29-1 48 16 59 35 1-10 0-23 2-32h30zM94-22c36 0 50-32 50-73 0-42-14-75-50-75-39 0-46 34-46 75s6 73 46 73" id="aj"/><path fill="#333" d="M100-194c63 0 86 42 84 106H49c0 40 14 67 53 68 26 1 43-12 49-29l28 8c-11 28-37 45-77 45C44 4 14-33 15-96c1-61 26-98 85-98zm52 81c6-60-76-77-97-28-3 7-6 17-6 28h103" id="ak"/><path fill="#333" d="M114-163C36-179 61-72 57 0H25l-1-190h30c1 12-1 29 2 39 6-27 23-49 58-41v29" id="al"/><path fill="#333" d="M87 75C49 33 22-17 22-94c0-76 28-126 65-167h31c-38 41-64 92-64 168S80 34 118 75H87" id="am"/><path fill="#333" d="M185-189c-5-48-123-54-124 2 14 75 158 14 163 119 3 78-121 87-175 55-17-10-28-26-33-46l33-7c5 56 141 63 141-1 0-78-155-14-162-118-5-82 145-84 179-34 5 7 8 16 11 25" id="an"/><path fill="#333" d="M179-190L93 31C79 59 56 82 12 73V49c39 6 53-20 64-50L1-190h34L92-34l54-156h33" id="ao"/><path fill="#333" d="M135-143c-3-34-86-38-87 0 15 53 115 12 119 90S17 21 10-45l28-5c4 36 97 45 98 0-10-56-113-15-118-90-4-57 82-63 122-42 12 7 21 19 24 35" id="ap"/><path fill="#333" d="M59-47c-2 24 18 29 38 22v24C64 9 27 4 27-40v-127H5v-23h24l9-43h21v43h35v23H59v120" id="aq"/><path fill="#333" d="M210-169c-67 3-38 105-44 169h-31v-121c0-29-5-50-35-48C34-165 62-65 56 0H25l-1-190h30c1 10-1 24 2 32 10-44 99-50 107 0 11-21 27-35 58-36 85-2 47 119 55 194h-31v-121c0-29-5-49-35-48" id="ar"/><g id="a"><use transform="matrix(0.05,0,0,0.05,0,0)" xlink:href="#ag"/><use transform="matrix(0.05,0,0,0.05,14.950000000000001,0)" xlink:href="#ah"/><use transform="matrix(0.05,0,0,0.05,24.950000000000003,0)" xlink:href="#ai"/><use transform="matrix(0.05,0,0,0.05,34.95,0)" xlink:href="#ah"/><use transform="matrix(0.05,0,0,0.05,44.95,0)" xlink:href="#aj"/><use transform="matrix(0.05,0,0,0.05,54.95,0)" xlink:href="#ak"/><use transform="matrix(0.05,0,0,0.05,64.95,0)" xlink:href="#al"/><use transform="matrix(0.05,0,0,0.05,70.9,0)" xlink:href="#am"/><use transform="matrix(0.05,0,0,0.05,76.85000000000001,0)" xlink:href="#an"/><use transform="matrix(0.05,0,0,0.05,88.85000000000001,0)" xlink:href="#ao"/><use transform="matrix(0.05,0,0,0.05,97.85000000000001,0)" xlink:href="#ap"/><use transform="matrix(0.05,0,0,0.05,106.85000000000001,0)" xlink:href="#aq"/><use transform="matrix(0.05,0,0,0.05,111.85000000000001,0)" xlink:href="#ak"/><use transform="matrix(0.05,0,0,0.05,121.85000000000001,0)" xlink:href="#ar"/></g><path fill="#333" d="M205 0l-28-72H64L36 0H1l101-248h38L239 0h-34zm-38-99l-47-123c-12 45-31 82-46 123h93" id="as"/><path fill="#333" d="M85-194c31 0 48 13 60 33l-1-100h32l1 261h-30c-2-10 0-23-3-31C134-8 116 4 85 4 32 4 16-35 15-94c0-66 23-100 70-100zm9 24c-40 0-46 34-46 75 0 40 6 74 45 74 42 0 51-32 51-76 0-42-9-74-50-73" id="at"/><path fill="#333" d="M24-231v-30h32v30H24zM24 0v-190h32V0H24" id="au"/><path fill="#333" d="M33-261c38 41 65 92 65 168S71 34 33 75H2C39 34 66-17 66-93S39-220 2-261h31" id="av"/><g id="b"><use transform="matrix(0.05,0,0,0.05,0,0)" xlink:href="#as"/><use transform="matrix(0.05,0,0,0.05,12,0)" xlink:href="#at"/><use transform="matrix(0.05,0,0,0.05,22,0)" xlink:href="#ar"/><use transform="matrix(0.05,0,0,0.05,36.95,0)" xlink:href="#au"/><use transform="matrix(0.05,0,0,0.05,40.900000000000006,0)" xlink:href="#ai"/><use transform="matrix(0.05,0,0,0.05,50.900000000000006,0)" xlink:href="#av"/></g><path fill="#333" d="M30-248c118-7 216 8 213 122C240-48 200 0 122 0H30v-248zM63-27c89 8 146-16 146-99s-60-101-146-95v194" id="aw"/><path fill="#333" d="M115-194c53 0 69 39 70 98 0 66-23 100-70 100C84 3 66-7 56-30L54 0H23l1-261h32v101c10-23 28-34 59-34zm-8 174c40 0 45-34 45-75 0-40-5-75-45-74-42 0-51 32-51 76 0 43 10 73 51 73" id="ax"/><g id="c"><use transform="matrix(0.05,0,0,0.05,0,0)" xlink:href="#aw"/><use transform="matrix(0.05,0,0,0.05,12.950000000000001,0)" xlink:href="#ah"/><use transform="matrix(0.05,0,0,0.05,22.950000000000003,0)" xlink:href="#aq"/><use transform="matrix(0.05,0,0,0.05,27.950000000000003,0)" xlink:href="#ah"/><use transform="matrix(0.05,0,0,0.05,37.95,0)" xlink:href="#ax"/><use transform="matrix(0.05,0,0,0.05,47.95,0)" xlink:href="#ah"/><use transform="matrix(0.05,0,0,0.05,57.95,0)" xlink:href="#ap"/><use transform="matrix(0.05,0,0,0.05,66.95,0)" xlink:href="#ak"/></g><path fill="#333" d="M212-179c-10-28-35-45-73-45-59 0-87 40-87 99 0 60 29 101 89 101 43 0 62-24 78-52l27 14C228-24 195 4 139 4 59 4 22-46 18-125c-6-104 99-153 187-111 19 9 31 26 39 46" id="ay"/><path fill="#333" d="M106-169C34-169 62-67 57 0H25v-261h32l-1 103c12-21 28-36 61-36 89 0 53 116 60 194h-32v-121c2-32-8-49-39-48" id="az"/><path fill="#333" d="M100-194c62-1 85 37 85 99 1 63-27 99-86 99S16-35 15-95c0-66 28-99 85-99zM99-20c44 1 53-31 53-75 0-43-8-75-51-75s-53 32-53 75 10 74 51 75" id="aA"/><g id="d"><use transform="matrix(0.05,0,0,0.05,0,0)" xlink:href="#ay"/><use transform="matrix(0.05,0,0,0.05,12.950000000000001,0)" xlink:href="#az"/><use transform="matrix(0.05,0,0,0.05,22.950000000000003,0)" xlink:href="#aA"/><use transform="matrix(0.05,0,0,0.05,32.95,0)" xlink:href="#aA"/><use transform="matrix(0.05,0,0,0.05,42.95,0)" xlink:href="#ap"/><use transform="matrix(0.05,0,0,0.05,51.95,0)" xlink:href="#ak"/></g><path fill="#333" d="M30 0v-248h33v221h125V0H30" id="aB"/><path fill="#333" d="M96-169c-40 0-48 33-48 73s9 75 48 75c24 0 41-14 43-38l32 2c-6 37-31 61-74 61-59 0-76-41-82-99-10-93 101-131 147-64 4 7 5 14 7 22l-32 3c-4-21-16-35-41-35" id="aC"/><g id="e"><use transform="matrix(0.05,0,0,0.05,0,0)" xlink:href="#aB"/><use transform="matrix(0.05,0,0,0.05,10,0)" xlink:href="#aA"/><use transform="matrix(0.05,0,0,0.05,20,0)" xlink:href="#aC"/><use transform="matrix(0.05,0,0,0.05,29,0)" xlink:href="#ah"/><use transform="matrix(0.05,0,0,0.05,39,0)" xlink:href="#aq"/><use transform="matrix(0.05,0,0,0.05,44,0)" xlink:href="#au"/><use transform="matrix(0.05,0,0,0.05,47.95,0)" xlink:href="#aA"/><use transform="matrix(0.05,0,0,0.05,57.95,0)" xlink:href="#ai"/></g><path fill="#333" d="M26 75v-336h71v23H56V52h41v23H26" id="aD"/><path fill="#333" d="M30-248c87 1 191-15 191 75 0 78-77 80-158 76V0H30v-248zm33 125c57 0 124 11 124-50 0-59-68-47-124-48v98" id="aE"/><g id="f"><use transform="matrix(0.05,0,0,0.05,0,0)" xlink:href="#aD"/><use transform="matrix(0.05,0,0,0.05,5,0)" xlink:href="#aE"/><use transform="matrix(0.05,0,0,0.05,17,0)" xlink:href="#au"/><use transform="matrix(0.05,0,0,0.05,20.95,0)" xlink:href="#ak"/></g><path fill="#333" d="M3 75V52h41v-290H3v-23h71V75H3" id="aF"/><g id="g"><use transform="matrix(0.05,0,0,0.05,0,0)" xlink:href="#ay"/><use transform="matrix(0.05,0,0,0.05,12.950000000000001,0)" xlink:href="#az"/><use transform="matrix(0.05,0,0,0.05,22.950000000000003,0)" xlink:href="#ah"/><use transform="matrix(0.05,0,0,0.05,32.95,0)" xlink:href="#al"/><use transform="matrix(0.05,0,0,0.05,38.900000000000006,0)" xlink:href="#aq"/><use transform="matrix(0.05,0,0,0.05,43.900000000000006,0)" xlink:href="#aF"/></g><path fill="#333" d="M160-131c35 5 61 23 61 61C221 17 115-2 30 0v-248c76 3 177-17 177 60 0 33-19 50-47 57zm-97-11c50-1 110 9 110-42 0-47-63-36-110-37v79zm0 115c55-2 124 14 124-45 0-56-70-42-124-44v89" id="aG"/><g id="h"><use transform="matrix(0.05,0,0,0.05,0,0)" xlink:href="#aD"/><use transform="matrix(0.05,0,0,0.05,5,0)" xlink:href="#aG"/><use transform="matrix(0.05,0,0,0.05,17,0)" xlink:href="#ah"/><use transform="matrix(0.05,0,0,0.05,27,0)" xlink:href="#al"/></g><path fill="#333" d="M143 4C61 4 22-44 18-125c-5-107 100-154 193-111 17 8 29 25 37 43l-32 9c-13-25-37-40-76-40-61 0-88 39-88 99 0 61 29 100 91 101 35 0 62-11 79-27v-45h-74v-28h105v86C228-13 192 4 143 4" id="aH"/><path fill="#333" d="M115-194c55 1 70 41 70 98S169 2 115 4C84 4 66-9 55-30l1 105H24l-1-265h31l2 30c10-21 28-34 59-34zm-8 174c40 0 45-34 45-75s-6-73-45-74c-42 0-51 32-51 76 0 43 10 73 51 73" id="aI"/><g id="i"><use transform="matrix(0.05,0,0,0.05,0,0)" xlink:href="#aH"/><use transform="matrix(0.05,0,0,0.05,14,0)" xlink:href="#al"/><use transform="matrix(0.05,0,0,0.05,19.95,0)" xlink:href="#ah"/><use transform="matrix(0.05,0,0,0.05,29.950000000000003,0)" xlink:href="#aI"/><use transform="matrix(0.05,0,0,0.05,39.95,0)" xlink:href="#az"/><use transform="matrix(0.05,0,0,0.05,49.95,0)" xlink:href="#aF"/></g><path fill="#333" d="M127-220V0H93v-220H8v-28h204v28h-85" id="aJ"/><path fill="#333" d="M24 0v-261h32V0H24" id="aK"/><g id="j"><use transform="matrix(0.05,0,0,0.05,0,0)" xlink:href="#aD"/><use transform="matrix(0.05,0,0,0.05,5,0)" xlink:href="#aJ"/><use transform="matrix(0.05,0,0,0.05,13.950000000000001,0)" xlink:href="#ah"/><use transform="matrix(0.05,0,0,0.05,23.950000000000003,0)" xlink:href="#ax"/><use transform="matrix(0.05,0,0,0.05,33.95,0)" xlink:href="#aK"/><use transform="matrix(0.05,0,0,0.05,37.900000000000006,0)" xlink:href="#ak"/><use transform="matrix(0.05,0,0,0.05,47.900000000000006,0)" xlink:href="#aF"/></g><g id="k"><use transform="matrix(0.05,0,0,0.05,0,0)" xlink:href="#an"/><use transform="matrix(0.05,0,0,0.05,12,0)" xlink:href="#ak"/><use transform="matrix(0.05,0,0,0.05,22,0)" xlink:href="#aK"/><use transform="matrix(0.05,0,0,0.05,25.950000000000003,0)" xlink:href="#ak"/><use transform="matrix(0.05,0,0,0.05,35.95,0)" xlink:href="#aC"/><use transform="matrix(0.05,0,0,0.05,44.95,0)" xlink:href="#aq"/></g><g id="l"><use transform="matrix(0.05,0,0,0.05,0,0)" xlink:href="#ay"/><use transform="matrix(0.05,0,0,0.05,12.950000000000001,0)" xlink:href="#ao"/><use transform="matrix(0.05,0,0,0.05,21.950000000000003,0)" xlink:href="#aC"/><use transform="matrix(0.05,0,0,0.05,30.950000000000003,0)" xlink:href="#aK"/><use transform="matrix(0.05,0,0,0.05,34.900000000000006,0)" xlink:href="#ak"/></g><g id="m"><use transform="matrix(0.05,0,0,0.05,0,0)" xlink:href="#ag"/><use transform="matrix(0.05,0,0,0.05,14.950000000000001,0)" xlink:href="#aA"/><use transform="matrix(0.05,0,0,0.05,24.950000000000003,0)" xlink:href="#at"/><use transform="matrix(0.05,0,0,0.05,34.95,0)" xlink:href="#ak"/><use transform="matrix(0.05,0,0,0.05,44.95,0)" xlink:href="#aK"/></g><path fill="#333" d="M84 4C-5 8 30-112 23-190h32v120c0 31 7 50 39 49 72-2 45-101 50-169h31l1 190h-30c-1-10 1-25-2-33-11 22-28 36-60 37" id="aL"/><g id="n"><use transform="matrix(0.03765432098765432,0,0,0.03765432098765432,0,0)" xlink:href="#ay"/><use transform="matrix(0.03765432098765432,0,0,0.03765432098765432,9.752469135802468,0)" xlink:href="#ah"/><use transform="matrix(0.03765432098765432,0,0,0.03765432098765432,17.28333333333333,0)" xlink:href="#aK"/><use transform="matrix(0.03765432098765432,0,0,0.03765432098765432,20.258024691358024,0)" xlink:href="#aC"/><use transform="matrix(0.03765432098765432,0,0,0.03765432098765432,27.035802469135803,0)" xlink:href="#aL"/><use transform="matrix(0.03765432098765432,0,0,0.03765432098765432,34.56666666666666,0)" xlink:href="#aK"/><use transform="matrix(0.03765432098765432,0,0,0.03765432098765432,37.541358024691355,0)" xlink:href="#ah"/><use transform="matrix(0.03765432098765432,0,0,0.03765432098765432,45.07222222222223,0)" xlink:href="#aq"/><use transform="matrix(0.03765432098765432,0,0,0.03765432098765432,48.83765432098765,0)" xlink:href="#ak"/></g><path fill="#333" d="M233-177c-1 41-23 64-60 70L243 0h-38l-65-103H63V0H30v-248c88 3 205-21 203 71zM63-129c60-2 137 13 137-47 0-61-80-42-137-45v92" id="aM"/><path fill="#333" d="M108 0H70L1-190h34L89-25l56-165h34" id="aN"/><g id="o"><use transform="matrix(0.03765432098765432,0,0,0.03765432098765432,0,0)" xlink:href="#aM"/><use transform="matrix(0.03765432098765432,0,0,0.03765432098765432,9.752469135802468,0)" xlink:href="#ak"/><use transform="matrix(0.03765432098765432,0,0,0.03765432098765432,17.28333333333333,0)" xlink:href="#aN"/><use transform="matrix(0.03765432098765432,0,0,0.03765432098765432,24.06111111111111,0)" xlink:href="#ak"/><use transform="matrix(0.03765432098765432,0,0,0.03765432098765432,31.591975308641974,0)" xlink:href="#ai"/><use transform="matrix(0.03765432098765432,0,0,0.03765432098765432,39.12283950617284,0)" xlink:href="#aL"/><use transform="matrix(0.03765432098765432,0,0,0.03765432098765432,46.6537037037037,0)" xlink:href="#ak"/></g><path fill="#333" d="M140-251c81 0 123 46 123 126C263-46 219 4 140 4 59 4 17-45 17-125s42-126 123-126zm0 227c63 0 89-41 89-101s-29-99-89-99c-61 0-89 39-89 99S79-25 140-24" id="aO"/><g id="p"><use transform="matrix(0.03765432098765432,0,0,0.03765432098765432,0,0)" xlink:href="#aO"/><use transform="matrix(0.03765432098765432,0,0,0.03765432098765432,10.543209876543209,0)" xlink:href="#aN"/><use transform="matrix(0.03765432098765432,0,0,0.03765432098765432,17.320987654320987,0)" xlink:href="#ak"/><use transform="matrix(0.03765432098765432,0,0,0.03765432098765432,24.85185185185185,0)" xlink:href="#al"/></g><g id="q"><use transform="matrix(0.03765432098765432,0,0,0.03765432098765432,0,0)" xlink:href="#aJ"/><use transform="matrix(0.03765432098765432,0,0,0.03765432098765432,7.756790123456789,0)" xlink:href="#au"/><use transform="matrix(0.03765432098765432,0,0,0.03765432098765432,10.731481481481481,0)" xlink:href="#ar"/><use transform="matrix(0.03765432098765432,0,0,0.03765432098765432,21.990123456790123,0)" xlink:href="#ak"/></g><g id="r"><use transform="matrix(0.03765432098765432,0,0,0.03765432098765432,0,0)" xlink:href="#aE"/><use transform="matrix(0.03765432098765432,0,0,0.03765432098765432,9.037037037037036,0)" xlink:href="#ak"/><use transform="matrix(0.03765432098765432,0,0,0.03765432098765432,16.5679012345679,0)" xlink:href="#al"/><use transform="matrix(0.03765432098765432,0,0,0.03765432098765432,21.048765432098765,0)" xlink:href="#au"/><use transform="matrix(0.03765432098765432,0,0,0.03765432098765432,24.023456790123454,0)" xlink:href="#aA"/><use transform="matrix(0.03765432098765432,0,0,0.03765432098765432,31.554320987654318,0)" xlink:href="#at"/></g><path fill="#333" d="M101-234c-31-9-42 10-38 44h38v23H63V0H32v-167H5v-23h27c-7-52 17-82 69-68v24" id="aP"/><g id="s"><use transform="matrix(0.03765432098765432,0,0,0.03765432098765432,0,0)" xlink:href="#aO"/><use transform="matrix(0.03765432098765432,0,0,0.03765432098765432,10.543209876543209,0)" xlink:href="#aP"/></g><g id="t"><use transform="matrix(0.03765432098765432,0,0,0.03765432098765432,0,0)" xlink:href="#as"/><use transform="matrix(0.03765432098765432,0,0,0.03765432098765432,9.037037037037036,0)" xlink:href="#aK"/><use transform="matrix(0.03765432098765432,0,0,0.03765432098765432,12.011728395061727,0)" xlink:href="#aK"/></g><g id="u"><use transform="matrix(0.03765432098765432,0,0,0.03765432098765432,0,0)" xlink:href="#aB"/><use transform="matrix(0.03765432098765432,0,0,0.03765432098765432,7.530864197530864,0)" xlink:href="#aA"/><use transform="matrix(0.03765432098765432,0,0,0.03765432098765432,15.061728395061728,0)" xlink:href="#aC"/><use transform="matrix(0.03765432098765432,0,0,0.03765432098765432,21.83950617283951,0)" xlink:href="#ah"/><use transform="matrix(0.03765432098765432,0,0,0.03765432098765432,29.37037037037037,0)" xlink:href="#aq"/><use transform="matrix(0.03765432098765432,0,0,0.03765432098765432,33.135802469135804,0)" xlink:href="#au"/><use transform="matrix(0.03765432098765432,0,0,0.03765432098765432,36.1104938271605,0)" xlink:href="#aA"/><use transform="matrix(0.03765432098765432,0,0,0.03765432098765432,43.64135802469136,0)" xlink:href="#ai"/><use transform="matrix(0.03765432098765432,0,0,0.03765432098765432,51.17222222222222,0)" xlink:href="#ap"/></g><g id="v"><use transform="matrix(0.03765432098765432,0,0,0.03765432098765432,0,0)" xlink:href="#ay"/><use transform="matrix(0.03765432098765432,0,0,0.03765432098765432,9.752469135802468,0)" xlink:href="#ah"/><use transform="matrix(0.03765432098765432,0,0,0.03765432098765432,17.28333333333333,0)" xlink:href="#aK"/><use transform="matrix(0.03765432098765432,0,0,0.03765432098765432,20.258024691358024,0)" xlink:href="#aC"/><use transform="matrix(0.03765432098765432,0,0,0.03765432098765432,27.035802469135803,0)" xlink:href="#aL"/><use transform="matrix(0.03765432098765432,0,0,0.03765432098765432,34.56666666666666,0)" xlink:href="#aq"/><use transform="matrix(0.03765432098765432,0,0,0.03765432098765432,38.33209876543209,0)" xlink:href="#ak"/></g><g id="w"><use transform="matrix(0.03765432098765432,0,0,0.03765432098765432,0,0)" xlink:href="#aE"/><use transform="matrix(0.03765432098765432,0,0,0.03765432098765432,9.037037037037036,0)" xlink:href="#au"/><use transform="matrix(0.03765432098765432,0,0,0.03765432098765432,12.011728395061727,0)" xlink:href="#ak"/></g><g id="x"><use transform="matrix(0.03765432098765432,0,0,0.03765432098765432,0,0)" xlink:href="#ay"/><use transform="matrix(0.03765432098765432,0,0,0.03765432098765432,9.752469135802468,0)" xlink:href="#az"/><use transform="matrix(0.03765432098765432,0,0,0.03765432098765432,17.28333333333333,0)" xlink:href="#ah"/><use transform="matrix(0.03765432098765432,0,0,0.03765432098765432,24.814197530864195,0)" xlink:href="#al"/><use transform="matrix(0.03765432098765432,0,0,0.03765432098765432,29.29506172839506,0)" xlink:href="#aq"/></g><path fill="#333" d="M266 0h-40l-56-210L115 0H75L2-248h35L96-30l15-64 43-154h32l59 218 59-218h35" id="aQ"/><g id="y"><use transform="matrix(0.03765432098765432,0,0,0.03765432098765432,0,0)" xlink:href="#aQ"/><use transform="matrix(0.03765432098765432,0,0,0.03765432098765432,12.764814814814814,0)" xlink:href="#au"/><use transform="matrix(0.03765432098765432,0,0,0.03765432098765432,15.739506172839505,0)" xlink:href="#aq"/><use transform="matrix(0.03765432098765432,0,0,0.03765432098765432,19.504938271604935,0)" xlink:href="#az"/></g><g id="z"><use transform="matrix(0.03765432098765432,0,0,0.03765432098765432,0,0)" xlink:href="#aM"/><use transform="matrix(0.03765432098765432,0,0,0.03765432098765432,9.752469135802468,0)" xlink:href="#ak"/><use transform="matrix(0.03765432098765432,0,0,0.03765432098765432,17.28333333333333,0)" xlink:href="#aK"/><use transform="matrix(0.03765432098765432,0,0,0.03765432098765432,20.258024691358024,0)" xlink:href="#ah"/><use transform="matrix(0.03765432098765432,0,0,0.03765432098765432,27.788888888888888,0)" xlink:href="#aq"/><use transform="matrix(0.03765432098765432,0,0,0.03765432098765432,31.55432098765432,0)" xlink:href="#au"/><use transform="matrix(0.03765432098765432,0,0,0.03765432098765432,34.529012345679014,0)" xlink:href="#aN"/><use transform="matrix(0.03765432098765432,0,0,0.03765432098765432,41.30679012345679,0)" xlink:href="#ak"/></g><g id="A"><use transform="matrix(0.03765432098765432,0,0,0.03765432098765432,0,0)" xlink:href="#an"/><use transform="matrix(0.03765432098765432,0,0,0.03765432098765432,9.037037037037036,0)" xlink:href="#ah"/><use transform="matrix(0.03765432098765432,0,0,0.03765432098765432,16.5679012345679,0)" xlink:href="#aK"/><use transform="matrix(0.03765432098765432,0,0,0.03765432098765432,19.54259259259259,0)" xlink:href="#ak"/><use transform="matrix(0.03765432098765432,0,0,0.03765432098765432,27.073456790123455,0)" xlink:href="#ap"/></g><g id="B"><use transform="matrix(0.03765432098765432,0,0,0.03765432098765432,0,0)" xlink:href="#aO"/><use transform="matrix(0.03765432098765432,0,0,0.03765432098765432,10.543209876543209,0)" xlink:href="#aP"/></g><g id="C"><use transform="matrix(0.03765432098765432,0,0,0.03765432098765432,0,0)" xlink:href="#ag"/><use transform="matrix(0.03765432098765432,0,0,0.03765432098765432,11.258641975308642,0)" xlink:href="#aA"/><use transform="matrix(0.03765432098765432,0,0,0.03765432098765432,18.789506172839506,0)" xlink:href="#at"/><use transform="matrix(0.03765432098765432,0,0,0.03765432098765432,26.32037037037037,0)" xlink:href="#ak"/><use transform="matrix(0.03765432098765432,0,0,0.03765432098765432,33.85123456790123,0)" xlink:href="#aK"/></g><g id="D"><use transform="matrix(0.03765432098765432,0,0,0.03765432098765432,0,0)" xlink:href="#aO"/><use transform="matrix(0.03765432098765432,0,0,0.03765432098765432,10.543209876543209,0)" xlink:href="#aN"/><use transform="matrix(0.03765432098765432,0,0,0.03765432098765432,17.320987654320987,0)" xlink:href="#ak"/><use transform="matrix(0.03765432098765432,0,0,0.03765432098765432,24.85185185185185,0)" xlink:href="#al"/></g><g id="E"><use transform="matrix(0.03765432098765432,0,0,0.03765432098765432,0,0)" xlink:href="#aJ"/><use transform="matrix(0.03765432098765432,0,0,0.03765432098765432,7.756790123456789,0)" xlink:href="#au"/><use transform="matrix(0.03765432098765432,0,0,0.03765432098765432,10.731481481481481,0)" xlink:href="#ar"/><use transform="matrix(0.03765432098765432,0,0,0.03765432098765432,21.990123456790123,0)" xlink:href="#ak"/></g><g id="F"><use transform="matrix(0.03765432098765432,0,0,0.03765432098765432,0,0)" xlink:href="#ay"/><use transform="matrix(0.03765432098765432,0,0,0.03765432098765432,9.752469135802468,0)" xlink:href="#ah"/><use transform="matrix(0.03765432098765432,0,0,0.03765432098765432,17.28333333333333,0)" xlink:href="#aK"/><use transform="matrix(0.03765432098765432,0,0,0.03765432098765432,20.258024691358024,0)" xlink:href="#aC"/><use transform="matrix(0.03765432098765432,0,0,0.03765432098765432,27.035802469135803,0)" xlink:href="#aL"/><use transform="matrix(0.03765432098765432,0,0,0.03765432098765432,34.56666666666666,0)" xlink:href="#ah"/><use transform="matrix(0.03765432098765432,0,0,0.03765432098765432,42.09753086419753,0)" xlink:href="#aq"/><use transform="matrix(0.03765432098765432,0,0,0.03765432098765432,45.86296296296295,0)" xlink:href="#ak"/></g><path fill="#333" d="M63-220v92h138v28H63V0H30v-248h175v28H63" id="aR"/><g id="G"><use transform="matrix(0.03765432098765432,0,0,0.03765432098765432,0,0)" xlink:href="#aR"/><use transform="matrix(0.03765432098765432,0,0,0.03765432098765432,8.246296296296295,0)" xlink:href="#al"/><use transform="matrix(0.03765432098765432,0,0,0.03765432098765432,12.72716049382716,0)" xlink:href="#aA"/><use transform="matrix(0.03765432098765432,0,0,0.03765432098765432,20.258024691358024,0)" xlink:href="#ar"/></g><g id="H"><use transform="matrix(0.03765432098765432,0,0,0.03765432098765432,0,0)" xlink:href="#ag"/><use transform="matrix(0.03765432098765432,0,0,0.03765432098765432,11.258641975308642,0)" xlink:href="#aA"/><use transform="matrix(0.03765432098765432,0,0,0.03765432098765432,18.789506172839506,0)" xlink:href="#at"/><use transform="matrix(0.03765432098765432,0,0,0.03765432098765432,26.32037037037037,0)" xlink:href="#ak"/><use transform="matrix(0.03765432098765432,0,0,0.03765432098765432,33.85123456790123,0)" xlink:href="#aK"/><use transform="matrix(0.03765432098765432,0,0,0.03765432098765432,36.82592592592592,0)" xlink:href="#ap"/></g><use transform="matrix(0.03765432098765432,0,0,0.03765432098765432,0,0)" xlink:href="#as" id="I"/><g id="J"><use transform="matrix(0.03765432098765432,0,0,0.03765432098765432,0,0)" xlink:href="#aH"/><use transform="matrix(0.03765432098765432,0,0,0.03765432098765432,10.543209876543209,0)" xlink:href="#au"/><use transform="matrix(0.03765432098765432,0,0,0.03765432098765432,13.5179012345679,0)" xlink:href="#aN"/><use transform="matrix(0.03765432098765432,0,0,0.03765432098765432,20.295679012345676,0)" xlink:href="#ak"/><use transform="matrix(0.03765432098765432,0,0,0.03765432098765432,27.82654320987654,0)" xlink:href="#ai"/></g><g id="K"><use transform="matrix(0.03765432098765432,0,0,0.03765432098765432,0,0)" xlink:href="#as"/><use transform="matrix(0.03765432098765432,0,0,0.03765432098765432,9.037037037037036,0)" xlink:href="#ai"/><use transform="matrix(0.03765432098765432,0,0,0.03765432098765432,16.5679012345679,0)" xlink:href="#at"/></g><g id="L"><use transform="matrix(0.03765432098765432,0,0,0.03765432098765432,0,0)" xlink:href="#aB"/><use transform="matrix(0.03765432098765432,0,0,0.03765432098765432,7.530864197530864,0)" xlink:href="#aA"/><use transform="matrix(0.03765432098765432,0,0,0.03765432098765432,15.061728395061728,0)" xlink:href="#aC"/><use transform="matrix(0.03765432098765432,0,0,0.03765432098765432,21.83950617283951,0)" xlink:href="#ah"/><use transform="matrix(0.03765432098765432,0,0,0.03765432098765432,29.37037037037037,0)" xlink:href="#aq"/><use transform="matrix(0.03765432098765432,0,0,0.03765432098765432,33.135802469135804,0)" xlink:href="#au"/><use transform="matrix(0.03765432098765432,0,0,0.03765432098765432,36.1104938271605,0)" xlink:href="#aA"/><use transform="matrix(0.03765432098765432,0,0,0.03765432098765432,43.64135802469136,0)" xlink:href="#ai"/></g><g id="M"><use transform="matrix(0.05,0,0,0.05,0,0)" xlink:href="#aw"/><use transform="matrix(0.05,0,0,0.05,12.950000000000001,0)" xlink:href="#au"/><use transform="matrix(0.05,0,0,0.05,16.900000000000002,0)" xlink:href="#ap"/><use transform="matrix(0.05,0,0,0.05,25.900000000000002,0)" xlink:href="#aI"/><use transform="matrix(0.05,0,0,0.05,35.900000000000006,0)" xlink:href="#aK"/><use transform="matrix(0.05,0,0,0.05,39.85000000000001,0)" xlink:href="#ah"/><use transform="matrix(0.05,0,0,0.05,49.85000000000001,0)" xlink:href="#ao"/></g><g id="N"><use transform="matrix(0.05,0,0,0.05,0,0)" xlink:href="#an"/><use transform="matrix(0.05,0,0,0.05,12,0)" xlink:href="#aq"/><use transform="matrix(0.05,0,0,0.05,17,0)" xlink:href="#ah"/><use transform="matrix(0.05,0,0,0.05,27,0)" xlink:href="#aq"/><use transform="matrix(0.05,0,0,0.05,32,0)" xlink:href="#au"/><use transform="matrix(0.05,0,0,0.05,35.95,0)" xlink:href="#ap"/><use transform="matrix(0.05,0,0,0.05,44.95,0)" xlink:href="#aq"/><use transform="matrix(0.05,0,0,0.05,49.95,0)" xlink:href="#au"/><use transform="matrix(0.05,0,0,0.05,53.900000000000006,0)" xlink:href="#aC"/><use transform="matrix(0.05,0,0,0.05,62.900000000000006,0)" xlink:href="#ap"/></g><path fill="#333" d="M190 0L58-211 59 0H30v-248h39L202-35l-2-213h31V0h-41" id="aS"/><g id="O"><use transform="matrix(0.05,0,0,0.05,0,0)" xlink:href="#aS"/><use transform="matrix(0.05,0,0,0.05,12.950000000000001,0)" xlink:href="#aA"/></g><g id="P"><use transform="matrix(0.05,0,0,0.05,0,0)" xlink:href="#aw"/><use transform="matrix(0.05,0,0,0.05,12.950000000000001,0)" xlink:href="#ah"/><use transform="matrix(0.05,0,0,0.05,22.950000000000003,0)" xlink:href="#aq"/><use transform="matrix(0.05,0,0,0.05,27.950000000000003,0)" xlink:href="#ah"/></g><g id="Q"><use transform="matrix(0.05,0,0,0.05,0,0)" xlink:href="#aJ"/><use transform="matrix(0.05,0,0,0.05,8.950000000000001,0)" xlink:href="#aA"/></g><g id="R"><use transform="matrix(0.05,0,0,0.05,0,0)" xlink:href="#aw"/><use transform="matrix(0.05,0,0,0.05,12.950000000000001,0)" xlink:href="#au"/><use transform="matrix(0.05,0,0,0.05,16.900000000000002,0)" xlink:href="#ap"/><use transform="matrix(0.05,0,0,0.05,25.900000000000002,0)" xlink:href="#aI"/><use transform="matrix(0.05,0,0,0.05,35.900000000000006,0)" xlink:href="#aK"/><use transform="matrix(0.05,0,0,0.05,39.85000000000001,0)" xlink:href="#ah"/><use transform="matrix(0.05,0,0,0.05,49.85000000000001,0)" xlink:href="#ao"/></g><path fill="#333" d="M30 0v-248h187v28H63v79h144v27H63v87h162V0H30" id="aT"/><g id="S"><use transform="matrix(0.05,0,0,0.05,0,0)" xlink:href="#aT"/><use transform="matrix(0.05,0,0,0.05,12,0)" xlink:href="#aK"/><use transform="matrix(0.05,0,0,0.05,15.949999999999998,0)" xlink:href="#ap"/><use transform="matrix(0.05,0,0,0.05,24.95,0)" xlink:href="#ak"/></g><g id="T"><use transform="matrix(0.05,0,0,0.05,0,0)" xlink:href="#aw"/><use transform="matrix(0.05,0,0,0.05,12.950000000000001,0)" xlink:href="#ah"/><use transform="matrix(0.05,0,0,0.05,22.950000000000003,0)" xlink:href="#aq"/><use transform="matrix(0.05,0,0,0.05,27.950000000000003,0)" xlink:href="#ah"/></g><g id="U"><use transform="matrix(0.05,0,0,0.05,0,0)" xlink:href="#aM"/><use transform="matrix(0.05,0,0,0.05,12.950000000000001,0)" xlink:href="#ak"/><use transform="matrix(0.05,0,0,0.05,22.950000000000003,0)" xlink:href="#aC"/><use transform="matrix(0.05,0,0,0.05,31.950000000000003,0)" xlink:href="#ak"/><use transform="matrix(0.05,0,0,0.05,41.95,0)" xlink:href="#au"/><use transform="matrix(0.05,0,0,0.05,45.900000000000006,0)" xlink:href="#aN"/><use transform="matrix(0.05,0,0,0.05,54.900000000000006,0)" xlink:href="#ak"/><use transform="matrix(0.05,0,0,0.05,64.9,0)" xlink:href="#at"/></g><g id="V"><use transform="matrix(0.05,0,0,0.05,0,0)" xlink:href="#aJ"/><use transform="matrix(0.05,0,0,0.05,10.3,0)" xlink:href="#au"/><use transform="matrix(0.05,0,0,0.05,14.25,0)" xlink:href="#ar"/><use transform="matrix(0.05,0,0,0.05,29.200000000000003,0)" xlink:href="#ak"/></g><g id="W"><use transform="matrix(0.05,0,0,0.05,0,0)" xlink:href="#aE"/><use transform="matrix(0.05,0,0,0.05,12,0)" xlink:href="#ak"/><use transform="matrix(0.05,0,0,0.05,22,0)" xlink:href="#al"/><use transform="matrix(0.05,0,0,0.05,27.950000000000003,0)" xlink:href="#au"/><use transform="matrix(0.05,0,0,0.05,31.899999999999995,0)" xlink:href="#aA"/><use transform="matrix(0.05,0,0,0.05,41.9,0)" xlink:href="#at"/></g><g id="X"><use transform="matrix(0.05,0,0,0.05,0,0)" xlink:href="#ay"/><use transform="matrix(0.05,0,0,0.05,12.950000000000001,0)" xlink:href="#az"/><use transform="matrix(0.05,0,0,0.05,22.950000000000003,0)" xlink:href="#aA"/><use transform="matrix(0.05,0,0,0.05,32.95,0)" xlink:href="#aA"/><use transform="matrix(0.05,0,0,0.05,42.95,0)" xlink:href="#ap"/><use transform="matrix(0.05,0,0,0.05,51.95,0)" xlink:href="#ak"/></g><path fill="#333" d="M137 0h-34L2-248h35l83 218 83-218h36" id="aU"/><path fill="#333" d="M206 0h-36l-40-164L89 0H53L-1-190h32L70-26l43-164h34l41 164 42-164h31" id="aV"/><g id="Y"><use transform="matrix(0.05,0,0,0.05,0,0)" xlink:href="#aU"/><use transform="matrix(0.05,0,0,0.05,11.65,0)" xlink:href="#au"/><use transform="matrix(0.05,0,0,0.05,15.600000000000001,0)" xlink:href="#ak"/><use transform="matrix(0.05,0,0,0.05,25.6,0)" xlink:href="#aV"/></g><g id="Z"><use transform="matrix(0.05,0,0,0.05,0,0)" xlink:href="#aJ"/><use transform="matrix(0.05,0,0,0.05,9.950000000000001,0)" xlink:href="#ao"/><use transform="matrix(0.05,0,0,0.05,18.950000000000003,0)" xlink:href="#aI"/><use transform="matrix(0.05,0,0,0.05,28.950000000000003,0)" xlink:href="#ak"/></g><g id="aa"><use transform="matrix(0.05,0,0,0.05,0,0)" xlink:href="#aG"/><use transform="matrix(0.05,0,0,0.05,12,0)" xlink:href="#ah"/><use transform="matrix(0.05,0,0,0.05,22,0)" xlink:href="#al"/></g><path fill="#333" d="M68-38c1 34 0 65-14 84H32c9-13 17-26 17-46H33v-38h35" id="aW"/><g id="ab"><use transform="matrix(0.05,0,0,0.05,0,0)" xlink:href="#aH"/><use transform="matrix(0.05,0,0,0.05,14,0)" xlink:href="#al"/><use transform="matrix(0.05,0,0,0.05,19.95,0)" xlink:href="#ah"/><use transform="matrix(0.05,0,0,0.05,29.950000000000003,0)" xlink:href="#aI"/><use transform="matrix(0.05,0,0,0.05,39.95,0)" xlink:href="#az"/><use transform="matrix(0.05,0,0,0.05,49.95,0)" xlink:href="#aW"/></g><g id="ac"><use transform="matrix(0.05,0,0,0.05,0,0)" xlink:href="#aJ"/><use transform="matrix(0.05,0,0,0.05,8.950000000000001,0)" xlink:href="#ah"/><use transform="matrix(0.05,0,0,0.05,18.950000000000003,0)" xlink:href="#ax"/><use transform="matrix(0.05,0,0,0.05,28.950000000000003,0)" xlink:href="#aK"/><use transform="matrix(0.05,0,0,0.05,32.900000000000006,0)" xlink:href="#ak"/></g><g id="ad"><use transform="matrix(0.05,0,0,0.05,0,0)" xlink:href="#aA"/><use transform="matrix(0.05,0,0,0.05,10,0)" xlink:href="#al"/></g><g id="ae"><use transform="matrix(0.05,0,0,0.05,0,0)" xlink:href="#aE"/><use transform="matrix(0.05,0,0,0.05,12,0)" xlink:href="#au"/><use transform="matrix(0.05,0,0,0.05,15.949999999999998,0)" xlink:href="#ak"/></g><g id="af"><use transform="matrix(0.05,0,0,0.05,0,0)" xlink:href="#ay"/><use transform="matrix(0.05,0,0,0.05,12.950000000000001,0)" xlink:href="#az"/><use transform="matrix(0.05,0,0,0.05,22.950000000000003,0)" xlink:href="#ah"/><use transform="matrix(0.05,0,0,0.05,32.95,0)" xlink:href="#al"/><use transform="matrix(0.05,0,0,0.05,38.900000000000006,0)" xlink:href="#aq"/></g></defs></g></svg>