<svg version="1.1" xmlns="http://www.w3.org/2000/svg" xmlns:xlink="http://www.w3.org/1999/xlink" width="524" height="549"><defs/><g><text fill="#eeeeee" stroke="none" font-family="Arial" font-size="24px" font-style="normal" font-weight="normal" text-decoration="none" x="0" y="0">UNREGISTERED</text><text fill="#eeeeee" stroke="none" font-family="Arial" font-size="24px" font-style="normal" font-weight="normal" text-decoration="none" x="0" y="30">UNREGISTERED</text><text fill="#eeeeee" stroke="none" font-family="Arial" font-size="24px" font-style="normal" font-weight="normal" text-decoration="none" x="0" y="60">UNREGISTERED</text><text fill="#eeeeee" stroke="none" font-family="Arial" font-size="24px" font-style="normal" font-weight="normal" text-decoration="none" x="0" y="90">UNREGISTERED</text><text fill="#eeeeee" stroke="none" font-family="Arial" font-size="24px" font-style="normal" font-weight="normal" text-decoration="none" x="0" y="120">UNREGISTERED</text><text fill="#eeeeee" stroke="none" font-family="Arial" font-size="24px" font-style="normal" font-weight="normal" text-decoration="none" x="0" y="150">UNREGISTERED</text><text fill="#eeeeee" stroke="none" font-family="Arial" font-size="24px" font-style="normal" font-weight="normal" text-decoration="none" x="0" y="180">UNREGISTERED</text><text fill="#eeeeee" stroke="none" font-family="Arial" font-size="24px" font-style="normal" font-weight="normal" text-decoration="none" x="0" y="210">UNREGISTERED</text><text fill="#eeeeee" stroke="none" font-family="Arial" font-size="24px" font-style="normal" font-weight="normal" text-decoration="none" x="0" y="240">UNREGISTERED</text><text fill="#eeeeee" stroke="none" font-family="Arial" font-size="24px" font-style="normal" font-weight="normal" text-decoration="none" x="0" y="270">UNREGISTERED</text><text fill="#eeeeee" stroke="none" font-family="Arial" font-size="24px" font-style="normal" font-weight="normal" text-decoration="none" x="0" y="300">UNREGISTERED</text><text fill="#eeeeee" stroke="none" font-family="Arial" font-size="24px" font-style="normal" font-weight="normal" text-decoration="none" x="0" y="330">UNREGISTERED</text><text fill="#eeeeee" stroke="none" font-family="Arial" font-size="24px" font-style="normal" font-weight="normal" text-decoration="none" x="0" y="360">UNREGISTERED</text><text fill="#eeeeee" stroke="none" font-family="Arial" font-size="24px" font-style="normal" font-weight="normal" text-decoration="none" x="0" y="390">UNREGISTERED</text><text fill="#eeeeee" stroke="none" font-family="Arial" font-size="24px" font-style="normal" font-weight="normal" text-decoration="none" x="0" y="420">UNREGISTERED</text><text fill="#eeeeee" stroke="none" font-family="Arial" font-size="24px" font-style="normal" font-weight="normal" text-decoration="none" x="0" y="450">UNREGISTERED</text><text fill="#eeeeee" stroke="none" font-family="Arial" font-size="24px" font-style="normal" font-weight="normal" text-decoration="none" x="0" y="480">UNREGISTERED</text><text fill="#eeeeee" stroke="none" font-family="Arial" font-size="24px" font-style="normal" font-weight="normal" text-decoration="none" x="0" y="510">UNREGISTERED</text><text fill="#eeeeee" stroke="none" font-family="Arial" font-size="24px" font-style="normal" font-weight="normal" text-decoration="none" x="0" y="540">UNREGISTERED</text><text fill="#eeeeee" stroke="none" font-family="Arial" font-size="24px" font-style="normal" font-weight="normal" text-decoration="none" x="200" y="0">UNREGISTERED</text><text fill="#eeeeee" stroke="none" font-family="Arial" font-size="24px" font-style="normal" font-weight="normal" text-decoration="none" x="200" y="30">UNREGISTERED</text><text fill="#eeeeee" stroke="none" font-family="Arial" font-size="24px" font-style="normal" font-weight="normal" text-decoration="none" x="200" y="60">UNREGISTERED</text><text fill="#eeeeee" stroke="none" font-family="Arial" font-size="24px" font-style="normal" font-weight="normal" text-decoration="none" x="200" y="90">UNREGISTERED</text><text fill="#eeeeee" stroke="none" font-family="Arial" font-size="24px" font-style="normal" font-weight="normal" text-decoration="none" x="200" y="120">UNREGISTERED</text><text fill="#eeeeee" stroke="none" font-family="Arial" font-size="24px" font-style="normal" font-weight="normal" text-decoration="none" x="200" y="150">UNREGISTERED</text><text fill="#eeeeee" stroke="none" font-family="Arial" font-size="24px" font-style="normal" font-weight="normal" text-decoration="none" x="200" y="180">UNREGISTERED</text><text fill="#eeeeee" stroke="none" font-family="Arial" font-size="24px" font-style="normal" font-weight="normal" text-decoration="none" x="200" y="210">UNREGISTERED</text><text fill="#eeeeee" stroke="none" font-family="Arial" font-size="24px" font-style="normal" font-weight="normal" text-decoration="none" x="200" y="240">UNREGISTERED</text><text fill="#eeeeee" stroke="none" font-family="Arial" font-size="24px" font-style="normal" font-weight="normal" text-decoration="none" x="200" y="270">UNREGISTERED</text><text fill="#eeeeee" stroke="none" font-family="Arial" font-size="24px" font-style="normal" font-weight="normal" text-decoration="none" x="200" y="300">UNREGISTERED</text><text fill="#eeeeee" stroke="none" font-family="Arial" font-size="24px" font-style="normal" font-weight="normal" text-decoration="none" x="200" y="330">UNREGISTERED</text><text fill="#eeeeee" stroke="none" font-family="Arial" font-size="24px" font-style="normal" font-weight="normal" text-decoration="none" x="200" y="360">UNREGISTERED</text><text fill="#eeeeee" stroke="none" font-family="Arial" font-size="24px" font-style="normal" font-weight="normal" text-decoration="none" x="200" y="390">UNREGISTERED</text><text fill="#eeeeee" stroke="none" font-family="Arial" font-size="24px" font-style="normal" font-weight="normal" text-decoration="none" x="200" y="420">UNREGISTERED</text><text fill="#eeeeee" stroke="none" font-family="Arial" font-size="24px" font-style="normal" font-weight="normal" text-decoration="none" x="200" y="450">UNREGISTERED</text><text fill="#eeeeee" stroke="none" font-family="Arial" font-size="24px" font-style="normal" font-weight="normal" text-decoration="none" x="200" y="480">UNREGISTERED</text><text fill="#eeeeee" stroke="none" font-family="Arial" font-size="24px" font-style="normal" font-weight="normal" text-decoration="none" x="200" y="510">UNREGISTERED</text><text fill="#eeeeee" stroke="none" font-family="Arial" font-size="24px" font-style="normal" font-weight="normal" text-decoration="none" x="200" y="540">UNREGISTERED</text><text fill="#eeeeee" stroke="none" font-family="Arial" font-size="24px" font-style="normal" font-weight="normal" text-decoration="none" x="400" y="0">UNREGISTERED</text><text fill="#eeeeee" stroke="none" font-family="Arial" font-size="24px" font-style="normal" font-weight="normal" text-decoration="none" x="400" y="30">UNREGISTERED</text><text fill="#eeeeee" stroke="none" font-family="Arial" font-size="24px" font-style="normal" font-weight="normal" text-decoration="none" x="400" y="60">UNREGISTERED</text><text fill="#eeeeee" stroke="none" font-family="Arial" font-size="24px" font-style="normal" font-weight="normal" text-decoration="none" x="400" y="90">UNREGISTERED</text><text fill="#eeeeee" stroke="none" font-family="Arial" font-size="24px" font-style="normal" font-weight="normal" text-decoration="none" x="400" y="120">UNREGISTERED</text><text fill="#eeeeee" stroke="none" font-family="Arial" font-size="24px" font-style="normal" font-weight="normal" text-decoration="none" x="400" y="150">UNREGISTERED</text><text fill="#eeeeee" stroke="none" font-family="Arial" font-size="24px" font-style="normal" font-weight="normal" text-decoration="none" x="400" y="180">UNREGISTERED</text><text fill="#eeeeee" stroke="none" font-family="Arial" font-size="24px" font-style="normal" font-weight="normal" text-decoration="none" x="400" y="210">UNREGISTERED</text><text fill="#eeeeee" stroke="none" font-family="Arial" font-size="24px" font-style="normal" font-weight="normal" text-decoration="none" x="400" y="240">UNREGISTERED</text><text fill="#eeeeee" stroke="none" font-family="Arial" font-size="24px" font-style="normal" font-weight="normal" text-decoration="none" x="400" y="270">UNREGISTERED</text><text fill="#eeeeee" stroke="none" font-family="Arial" font-size="24px" font-style="normal" font-weight="normal" text-decoration="none" x="400" y="300">UNREGISTERED</text><text fill="#eeeeee" stroke="none" font-family="Arial" font-size="24px" font-style="normal" font-weight="normal" text-decoration="none" x="400" y="330">UNREGISTERED</text><text fill="#eeeeee" stroke="none" font-family="Arial" font-size="24px" font-style="normal" font-weight="normal" text-decoration="none" x="400" y="360">UNREGISTERED</text><text fill="#eeeeee" stroke="none" font-family="Arial" font-size="24px" font-style="normal" font-weight="normal" text-decoration="none" x="400" y="390">UNREGISTERED</text><text fill="#eeeeee" stroke="none" font-family="Arial" font-size="24px" font-style="normal" font-weight="normal" text-decoration="none" x="400" y="420">UNREGISTERED</text><text fill="#eeeeee" stroke="none" font-family="Arial" font-size="24px" font-style="normal" font-weight="normal" text-decoration="none" x="400" y="450">UNREGISTERED</text><text fill="#eeeeee" stroke="none" font-family="Arial" font-size="24px" font-style="normal" font-weight="normal" text-decoration="none" x="400" y="480">UNREGISTERED</text><text fill="#eeeeee" stroke="none" font-family="Arial" font-size="24px" font-style="normal" font-weight="normal" text-decoration="none" x="400" y="510">UNREGISTERED</text><text fill="#eeeeee" stroke="none" font-family="Arial" font-size="24px" font-style="normal" font-weight="normal" text-decoration="none" x="400" y="540">UNREGISTERED</text><g transform="translate(-214,-30) scale(1,1)"><rect fill="#ffffff" stroke="none" x="224" y="40" width="256" height="21"/></g><g transform="translate(-214,-30) scale(1,1)"><path fill="none" stroke="#000000" d="M 224 40 L 480 40 L 480 61 L 224 61 L 224 40 Z Z" stroke-miterlimit="10" stroke-width="2"/></g><g transform="translate(-214,-30) scale(1,1)"><path fill="none" stroke="#000000" d="M 224 568 L 224 40 L 480 40 L 480 568" stroke-miterlimit="10" stroke-width="2"/></g><g transform="translate(-214,-30) scale(1,1)"><g><path fill="none" stroke="none"/><text fill="#000000" stroke="none" font-family="Arial" font-size="13px" font-style="normal" font-weight="normal" text-decoration="none" x="318.28759765625" y="57">DATABASE</text></g></g><g transform="translate(-214,-30) scale(1,1)"><rect fill="#ffffff" stroke="none" x="480" y="40" width="248" height="21"/></g><g transform="translate(-214,-30) scale(1,1)"><path fill="none" stroke="#000000" d="M 480 40 L 728 40 L 728 61 L 480 61 L 480 40 Z Z" stroke-miterlimit="10" stroke-width="2"/></g><g transform="translate(-214,-30) scale(1,1)"><path fill="none" stroke="#000000" d="M 480 568 L 480 40 L 728 40 L 728 568" stroke-miterlimit="10" stroke-width="2"/></g><g transform="translate(-214,-30) scale(1,1)"><g><path fill="none" stroke="none"/><text fill="#000000" stroke="none" font-family="Arial" font-size="13px" font-style="normal" font-weight="normal" text-decoration="none" x="572.937744140625" y="57">HANDLER</text></g></g><g transform="translate(-214,-30) scale(1,1)"><path fill="#C0C0C0" stroke="none" d="M 599 88.5 C 599 83.2532944 603.2532944 79 608.5 79 C 613.7467056 79 618 83.2532944 618 88.5 C 618 93.7467056 613.7467056 98 608.5 98 C 603.2532944 98 599 93.7467056 599 88.5 Z" opacity="0.2"/></g><g transform="translate(-214,-30) scale(1,1)"><path fill="#000000" stroke="none" d="M 592 81.5 C 592 76.2532944 596.2532944 72 601.5 72 C 606.7467056 72 611 76.2532944 611 81.5 C 611 86.7467056 606.7467056 91 601.5 91 C 596.2532944 91 592 86.7467056 592 81.5 Z"/></g><g transform="translate(-214,-30) scale(1,1)"><path fill="#C0C0C0" stroke="none" d="M 521 151 L 702.89892578125 151 Q 712.89892578125 151 712.89892578125 161 L 712.89892578125 181 Q 712.89892578125 191 702.89892578125 191 L 521 191 Q 511 191 511 181 L 511 161 Q 511 151 521 151 Z" opacity="0.2"/></g><g transform="translate(-214,-30) scale(1,1)"><path fill="#ffffff" stroke="none" d="M 514 144 L 695.89892578125 144 Q 705.89892578125 144 705.89892578125 154 L 705.89892578125 174 Q 705.89892578125 184 695.89892578125 184 L 514 184 Q 504 184 504 174 L 504 154 Q 504 144 514 144 Z"/></g><g transform="translate(-214,-30) scale(1,1)"><path fill="none" stroke="#000000" d="M 514 144 L 695.89892578125 144 Q 705.89892578125 144 705.89892578125 154 L 705.89892578125 174 Q 705.89892578125 184 695.89892578125 184 L 514 184 Q 504 184 504 174 L 504 154 Q 504 144 514 144 Z" stroke-miterlimit="10"/></g><g transform="translate(-214,-30) scale(1,1)"><g><path fill="none" stroke="none"/><text fill="#000000" stroke="none" font-family="Arial" font-size="13px" font-style="normal" font-weight="bold" text-decoration="none" x="513.9208984375" y="163.5">Recieve an OTP from customer</text></g></g><g transform="translate(-214,-30) scale(1,1)"><path fill="#C0C0C0" stroke="none" d="M 553 455 L 677.103515625 455 Q 687.103515625 455 687.103515625 465 L 687.103515625 485 Q 687.103515625 495 677.103515625 495 L 553 495 Q 543 495 543 485 L 543 465 Q 543 455 553 455 Z" opacity="0.2"/></g><g transform="translate(-214,-30) scale(1,1)"><path fill="#ffffff" stroke="none" d="M 546 448 L 670.103515625 448 Q 680.103515625 448 680.103515625 458 L 680.103515625 478 Q 680.103515625 488 670.103515625 488 L 546 488 Q 536 488 536 478 L 536 458 Q 536 448 546 448 Z"/></g><g transform="translate(-214,-30) scale(1,1)"><path fill="none" stroke="#000000" d="M 546 448 L 670.103515625 448 Q 680.103515625 448 680.103515625 458 L 680.103515625 478 Q 680.103515625 488 670.103515625 488 L 546 488 Q 536 488 536 478 L 536 458 Q 536 448 546 448 Z" stroke-miterlimit="10"/></g><g transform="translate(-214,-30) scale(1,1)"><g><path fill="none" stroke="none"/><text fill="#000000" stroke="none" font-family="Arial" font-size="13px" font-style="normal" font-weight="bold" text-decoration="none" x="546.27001953125" y="467.5">Verification Sucessful</text></g></g><g transform="translate(-214,-30) scale(1,1)"><path fill="none" stroke="#000000" d="M 601 92 L 603 143" stroke-miterlimit="10"/></g><g transform="translate(-214,-30) scale(1,1)"><path fill="none" stroke="#000000" d="M 598.3954851875804 133.01008291614946 L 603 143 L 606.8080544655463 132.68017823858216" stroke-miterlimit="10"/></g><g transform="translate(-214,-30) scale(1,1)"><path fill="none" stroke="#000000" d="M 605 185 L 608 295" stroke-miterlimit="10"/></g><g transform="translate(-214,-30) scale(1,1)"><path fill="none" stroke="#000000" d="M 603.5149860545772 284.95586489988494 L 608 295 L 611.9308922659205 284.72634018503015" stroke-miterlimit="10"/></g><g transform="translate(-214,-30) scale(1,1)"><path fill="none" stroke="#000000" d="M 535 317 L 377 319" stroke-miterlimit="10"/></g><g transform="translate(-214,-30) scale(1,1)"><path fill="none" stroke="#000000" d="M 387.10858000258816 314.6621883015425 L 377 319 L 387.21514153548645 323.0805494005072" stroke-miterlimit="10"/></g><g transform="translate(-214,-30) scale(1,1)"><path fill="none" stroke="#000000" d="M 331 361 L 328 472 L 535 469" stroke-miterlimit="10"/></g><g transform="translate(-214,-30) scale(1,1)"><path fill="none" stroke="#000000" d="M 524.8993933556344 473.3563454197064 L 535 469 L 524.7773911602059 464.9381939351365" stroke-miterlimit="10"/></g><g transform="translate(-214,-30) scale(1,1)"><g><path fill="none" stroke="none"/><text fill="#000000" stroke="none" font-family="Arial" font-size="13px" font-style="normal" font-weight="normal" text-decoration="none" x="343.5" y="468.5">Yes</text></g></g><g transform="translate(-214,-30) scale(1,1)"><path fill="#C0C0C0" stroke="none" d="M 295 327.5 L 339.5 287 L 383 327.5 L 339.5 367 L 295 327.5" opacity="0.2"/></g><g transform="translate(-214,-30) scale(1,1)"><path fill="#ffffff" stroke="none" d="M 288 320 L 332 280 L 376 320 L 332 360 L 288 320"/></g><g transform="translate(-214,-30) scale(1,1)"><path fill="none" stroke="#000000" d="M 288 320 L 332 280 L 376 320 L 332 360 L 288 320 L 288 320" stroke-miterlimit="10"/></g><g transform="translate(-214,-30) scale(1,1)"><path fill="none" stroke="#000000" d="M 333 279 L 334 232" stroke-miterlimit="10"/></g><g transform="translate(-214,-30) scale(1,1)"><path fill="none" stroke="#000000" d="M 337.9923870697424 242.2499192916507 L 334 232 L 329.5752565323953 242.0708314078774" stroke-miterlimit="10"/></g><g transform="translate(-214,-30) scale(1,1)"><g><path fill="none" stroke="none"/><text fill="#000000" stroke="none" font-family="Arial" font-size="13px" font-style="normal" font-weight="normal" text-decoration="none" x="310.5" y="260.5">NO</text></g></g><g transform="translate(-214,-30) scale(1,1)"><path fill="#C0C0C0" stroke="none" d="M 305 191 L 380 191 Q 390 191 390 201 L 390 228 Q 390 238 380 238 L 305 238 Q 295 238 295 228 L 295 201 Q 295 191 305 191 Z" opacity="0.2"/></g><g transform="translate(-214,-30) scale(1,1)"><path fill="#ffffff" stroke="none" d="M 298 184 L 373 184 Q 383 184 383 194 L 383 221 Q 383 231 373 231 L 298 231 Q 288 231 288 221 L 288 194 Q 288 184 298 184 Z"/></g><g transform="translate(-214,-30) scale(1,1)"><path fill="none" stroke="#000000" d="M 298 184 L 373 184 Q 383 184 383 194 L 383 221 Q 383 231 373 231 L 298 231 Q 288 231 288 221 L 288 194 Q 288 184 298 184 Z" stroke-miterlimit="10"/></g><g transform="translate(-214,-30) scale(1,1)"><g><path fill="none" stroke="none"/><text fill="#000000" stroke="none" font-family="Arial" font-size="13px" font-style="normal" font-weight="bold" text-decoration="none" x="301.543212890625" y="203.5">Invalid OTP</text></g></g><g transform="translate(-214,-30) scale(1,1)"><path fill="#C0C0C0" stroke="none" d="M 553 303 L 680.70263671875 303 Q 690.70263671875 303 690.70263671875 313 L 690.70263671875 333 Q 690.70263671875 343 680.70263671875 343 L 553 343 Q 543 343 543 333 L 543 313 Q 543 303 553 303 Z" opacity="0.2"/></g><g transform="translate(-214,-30) scale(1,1)"><path fill="#ffffff" stroke="none" d="M 546 296 L 673.70263671875 296 Q 683.70263671875 296 683.70263671875 306 L 683.70263671875 326 Q 683.70263671875 336 673.70263671875 336 L 546 336 Q 536 336 536 326 L 536 306 Q 536 296 546 296 Z"/></g><g transform="translate(-214,-30) scale(1,1)"><path fill="none" stroke="#000000" d="M 546 296 L 673.70263671875 296 Q 683.70263671875 296 683.70263671875 306 L 683.70263671875 326 Q 683.70263671875 336 673.70263671875 336 L 546 336 Q 536 336 536 326 L 536 306 Q 536 296 546 296 Z" stroke-miterlimit="10"/></g><g transform="translate(-214,-30) scale(1,1)"><g><path fill="none" stroke="none"/><text fill="#000000" stroke="none" font-family="Arial" font-size="13px" font-style="normal" font-weight="bold" text-decoration="none" x="543.73095703125" y="315.5">Enter OTP in database</text></g></g><g transform="translate(-214,-30) scale(1,1)"><path fill="#C0C0C0" stroke="none" d="M 313 119 L 379.29541015625 119 Q 389.29541015625 119 389.29541015625 129 L 389.29541015625 149 Q 389.29541015625 159 379.29541015625 159 L 313 159 Q 303 159 303 149 L 303 129 Q 303 119 313 119 Z" opacity="0.2"/></g><g transform="translate(-214,-30) scale(1,1)"><path fill="#ffffff" stroke="none" d="M 306 112 L 372.29541015625 112 Q 382.29541015625 112 382.29541015625 122 L 382.29541015625 142 Q 382.29541015625 152 372.29541015625 152 L 306 152 Q 296 152 296 142 L 296 122 Q 296 112 306 112 Z"/></g><g transform="translate(-214,-30) scale(1,1)"><path fill="none" stroke="#000000" d="M 306 112 L 372.29541015625 112 Q 382.29541015625 112 382.29541015625 122 L 382.29541015625 142 Q 382.29541015625 152 372.29541015625 152 L 306 152 Q 296 152 296 142 L 296 122 Q 296 112 306 112 Z" stroke-miterlimit="10"/></g><g transform="translate(-214,-30) scale(1,1)"><g><path fill="none" stroke="none"/><text fill="#000000" stroke="none" font-family="Arial" font-size="13px" font-style="normal" font-weight="bold" text-decoration="none" x="301.575927734375" y="131.5">Resend OTP</text></g></g><g transform="translate(-214,-30) scale(1,1)"><path fill="none" stroke="#000000" d="M 336 183 L 338 153" stroke-miterlimit="10"/></g><g transform="translate(-214,-30) scale(1,1)"><path fill="none" stroke="#000000" d="M 341.5241832628826 163.42017909297235 L 338 153 L 333.1237945855094 162.86015318114747" stroke-miterlimit="10"/></g><g transform="translate(-214,-30) scale(1,1)"><path fill="none" stroke="#000000" d="M 383 137 L 503 152" stroke-miterlimit="10"/></g><g transform="translate(-214,-30) scale(1,1)"><path fill="none" stroke="#000000" d="M 492.39367615292934 154.9164866622462 L 503 152 L 493.43792898816133 146.56246398039013" stroke-miterlimit="10"/></g><g transform="translate(-214,-30) scale(1,1)"><g><path fill="none" stroke="none"/><text fill="#000000" stroke="none" font-family="Arial" font-size="13px" font-style="normal" font-weight="normal" text-decoration="none" x="309" y="322">Check</text><text fill="#000000" stroke="none" font-family="Arial" font-size="13px" font-style="normal" font-weight="normal" text-decoration="none" x="309" y="335">OTP</text></g></g><g transform="translate(-214,-30) scale(1,1)"><path fill="#C0C0C0" stroke="none" d="M 599 563.5 C 599 556.59644 604.59644 551 611.5 551 C 618.40356 551 624 556.59644 624 563.5 C 624 570.40356 618.40356 576 611.5 576 C 604.59644 576 599 570.40356 599 563.5 Z" opacity="0.2"/></g><g transform="translate(-214,-30) scale(1,1)"><path fill="none" stroke="#000000" d="M 592 556.5 C 592 549.59644 597.59644 544 604.5 544 C 611.40356 544 617 549.59644 617 556.5 C 617 563.40356 611.40356 569 604.5 569 C 597.59644 569 592 563.40356 592 556.5 Z" stroke-miterlimit="10"/></g><g transform="translate(-214,-30) scale(1,1)"><path fill="#000000" stroke="none" d="M 597 556.5 C 597 552.357864 600.357864 549 604.5 549 C 608.642136 549 612 552.357864 612 556.5 C 612 560.642136 608.642136 564 604.5 564 C 600.357864 564 597 560.642136 597 556.5 Z"/></g><g transform="translate(-214,-30) scale(1,1)"><path fill="none" stroke="#000000" d="M 607 489 L 605 543" stroke-miterlimit="10"/></g><g transform="translate(-214,-30) scale(1,1)"><path fill="none" stroke="#000000" d="M 601.1695039351113 532.6884870219317 L 605 543 L 609.582771008294 533.0000895061236" stroke-miterlimit="10"/></g></g></svg>