<svg xmlns="http://www.w3.org/2000/svg" xmlns:xlink="http://www.w3.org/1999/xlink" xmlns:lucid="lucid" width="1277.33" height="1400"><g transform="translate(-22.666666666666657 -80)" lucid:page-tab-id="0_0"><path d="M42.67 1312.67h240v60h-240z" fill="none"/><path d="M680 120c0 11.05-8.95 20-20 20s-20-8.95-20-20 8.95-20 20-20 20 8.95 20 20z" stroke="#5e5e5e" stroke-width="3"/><path d="M660 142.5V240" stroke="#5e5e5e" stroke-width="2" fill="none"/><path d="M659.93 141.5l1.07-.03v1.06h-2v-1.14z" fill="#5e5e5e"/><path d="M660 255.26L655.36 241h9.28z" stroke="#5e5e5e" stroke-width="2" fill="#5e5e5e"/><path d="M236 1000c-8.84 0-16 7.16-16 16v48c0 8.84 7.16 16 16 16h128c8.84 0 16-7.16 16-16v-48c0-8.84-7.16-16-16-16z" stroke="#5e5e5e" stroke-width="3" fill="#fff"/><use xlink:href="#a" transform="matrix(1,0,0,1,228,1008) translate(8.574074074074076 36.44444444444444)"/><use xlink:href="#b" transform="matrix(1,0,0,1,228,1008) translate(79.99382716049382 36.44444444444444)"/><path d="M236 1240c-8.84 0-16 7.16-16 16v48c0 8.84 7.16 16 16 16h128c8.84 0 16-7.16 16-16v-48c0-8.84-7.16-16-16-16z" stroke="#5e5e5e" stroke-width="3" fill="#fff"/><use xlink:href="#c" transform="matrix(1,0,0,1,228,1248) translate(5.425925925925924 23.111111111111114)"/><use xlink:href="#d" transform="matrix(1,0,0,1,228,1248) translate(83.14197530864197 23.111111111111114)"/><use xlink:href="#e" transform="matrix(1,0,0,1,228,1248) translate(30.703703703703702 49.77777777777778)"/><path d="M375.76 864.95c2.34-2.34 6.14-2.34 8.48 0l11.52 11.52c2.34 2.34 2.34 6.14 0 8.48l-11.52 11.52c-2.34 2.34-6.14 2.34-8.48 0l-11.52-11.52c-2.34-2.34-2.34-6.14 0-8.48zM916 621.42c-8.84 0-16 7.16-16 16v48c0 8.83 7.16 16 16 16h128c8.84 0 16-7.17 16-16v-48c0-8.84-7.16-16-16-16z" stroke="#5e5e5e" stroke-width="3" fill="#fff"/><use xlink:href="#f" transform="matrix(1,0,0,1,908,629.4173228346456) translate(21.444444444444443 23.111111111111114)"/><use xlink:href="#d" transform="matrix(1,0,0,1,908,629.4173228346456) translate(67.12345679012346 23.111111111111114)"/><use xlink:href="#g" transform="matrix(1,0,0,1,908,629.4173228346456) translate(17.185185185185176 49.77777777777778)"/><path d="M975.76 864.95c2.34-2.34 6.14-2.34 8.48 0l11.52 11.52c2.34 2.34 2.34 6.14 0 8.48l-11.52 11.52c-2.34 2.34-6.14 2.34-8.48 0l-11.52-11.52c-2.34-2.34-2.34-6.14 0-8.48z" stroke="#5e5e5e" stroke-width="3" fill="#fff"/><path d="M980 703.92v139.3" stroke="#5e5e5e" stroke-width="2" fill="none"/><path d="M981 703.94h-2v-1.02h2z" fill="#5e5e5e"/><path d="M980 858.5l-4.64-14.28h9.28z" stroke="#5e5e5e" stroke-width="2" fill="#5e5e5e"/><path d="M876 1000c-8.84 0-16 7.16-16 16v48c0 8.84 7.16 16 16 16h128c8.84 0 16-7.16 16-16v-48c0-8.84-7.16-16-16-16z" stroke="#5e5e5e" stroke-width="3" fill="#fff"/><use xlink:href="#f" transform="matrix(1,0,0,1,868,1008) translate(11.537037037037038 23.111111111111114)"/><use xlink:href="#h" transform="matrix(1,0,0,1,868,1008) translate(57.21604938271605 23.111111111111114)"/><use xlink:href="#i" transform="matrix(1,0,0,1,868,1008) translate(113.94444444444444 23.111111111111114)"/><use xlink:href="#j" transform="matrix(1,0,0,1,868,1008) translate(43.60493827160494 49.77777777777778)"/><path d="M876 1240c-8.84 0-16 7.16-16 16v48c0 8.84 7.16 16 16 16h128c8.84 0 16-7.16 16-16v-48c0-8.84-7.16-16-16-16z" stroke="#5e5e5e" stroke-width="3" fill="#fff"/><use xlink:href="#c" transform="matrix(1,0,0,1,868,1248) translate(5.425925925925924 23.111111111111114)"/><use xlink:href="#d" transform="matrix(1,0,0,1,868,1248) translate(83.14197530864197 23.111111111111114)"/><use xlink:href="#e" transform="matrix(1,0,0,1,868,1248) translate(30.703703703703702 49.77777777777778)"/><path d="M1062.5 1274.13l-.92 3.42-2.53 2.53-3.42.92H1040v-2h15.37l2.64-.7 1.8-1.8.7-2.63v-194.1h2zm-3.45-393.5l2.53 2.53.92 3.42v171.85h-2v-171.6l-.7-2.63-1.8-1.78-2.63-.7H1000v-2h55.63z" fill="#5e5e5e"/><path d="M1000 881.7h-1.15l.18-1.32-.15-.67h1.13zM1039 1284.64l-14.26-4.64 14.26-4.64z" fill="#5e5e5e"/><path d="M1040 1286l-18.5-6 18.5-6zm-12.03-6l10.03 3.26v-6.52z" fill="#5e5e5e"/><use xlink:href="#k" transform="matrix(1,0,0,1,1049.6975308641975,1058.4310880860614) translate(0 14.222222222222223)"/><path d="M819.5 1033.87l.7 2.64 1.8 1.8 2.63.7H840v2h-15.63l-3.42-.92-2.53-2.53-.92-3.42v-111.7h2zM960 881.7H824.64l-2.64.72-1.8 1.78-.7 2.64v8.92h-2v-9.18l.92-3.42 2.53-2.53 3.42-.92H960zM960.97 881.04l.15.67H960v-2h1.15zM855.26 1040l-14.26 4.64v-9.28z" fill="#5e5e5e"/><path d="M858.5 1040l-18.5 6v-12zm-16.5 3.26l10.03-3.26-10.03-3.26z" fill="#5e5e5e"/><use xlink:href="#l" transform="matrix(1,0,0,1,724.7654320987655,895.7644214193947) translate(0 17.77777777777778)"/><use xlink:href="#m" transform="matrix(1,0,0,1,724.7654320987655,895.7644214193947) translate(125.80246913580247 17.77777777777778)"/><path d="M941 1220h-2v-70.67h2zm0-94.67h-2v-42.83h2z" fill="#5e5e5e"/><path d="M941 1082.53h-2v-1.03h2zM940 1235.26l-4.64-14.26h9.28z" fill="#5e5e5e"/><path d="M940 1238.5l-6-18.5h12zm-3.26-16.5l3.26 10.03 3.26-10.03z" fill="#5e5e5e"/><use xlink:href="#n" transform="matrix(1,0,0,1,857.4444444444445,1125.3333333333333) translate(0 16)"/><use xlink:href="#o" transform="matrix(1,0,0,1,857.4444444444445,1125.3333333333333) translate(91.8888888888889 16)"/><path d="M179.5 1033.87l.7 2.64 1.8 1.8 2.63.7H200v2h-15.63l-3.42-.92-2.53-2.53-.92-3.42v-131.7h2zM360 881.7h-63.2v-2H360zM360.97 881.04l.15.67H360v-2h1.15zM215.26 1040l-14.26 4.64v-9.28z" fill="#5e5e5e"/><path d="M218.5 1040l-18.5 6v-12zm-16.5 3.26l10.03-3.26-10.03-3.26z" fill="#5e5e5e"/><use xlink:href="#p" transform="matrix(1,0,0,1,60.197530864197546,875.7644214193947) translate(0 17.77777777777778)"/><use xlink:href="#q" transform="matrix(1,0,0,1,60.197530864197546,875.7644214193947) translate(60.370370370370374 17.77777777777778)"/><use xlink:href="#r" transform="matrix(1,0,0,1,60.197530864197546,875.7644214193947) translate(125.74074074074073 17.77777777777778)"/><use xlink:href="#s" transform="matrix(1,0,0,1,60.197530864197546,875.7644214193947) translate(167.59259259259258 17.77777777777778)"/><path d="M501 1274.13l-.92 3.42-2.53 2.53-3.42.92H400v-2h93.87l2.64-.7 1.8-1.8.7-2.63V1101.1h2zm-3.45-393.5l2.53 2.53.92 3.42v190.52h-2V886.84l-.7-2.64-1.8-1.78-2.63-.7H400v-2h94.13zM400 881.7h-1.15l.18-1.32-.15-.67H400zM399 1284.64l-14.26-4.64 14.26-4.64z" fill="#5e5e5e"/><path d="M400 1286l-18.5-6 18.5-6zm-12.03-6l10.03 3.26v-6.52z" fill="#5e5e5e"/><use xlink:href="#t" transform="matrix(1,0,0,1,412.94444444444446,1077.097754752728) translate(0 16)"/><use xlink:href="#u" transform="matrix(1,0,0,1,412.94444444444446,1077.097754752728) translate(32.11111111111111 16)"/><use xlink:href="#v" transform="matrix(1,0,0,1,412.94444444444446,1077.097754752728) translate(87.66666666666666 16)"/><use xlink:href="#w" transform="matrix(1,0,0,1,412.94444444444446,1077.097754752728) translate(112 16)"/><use xlink:href="#x" transform="matrix(1,0,0,1,500,968.4430453308838) translate(0 14.222222222222223)"/><use xlink:href="#x" transform="matrix(1,0,0,1,508,994.1767193636251) translate(0 14.222222222222223)"/><path d="M301 1220h-2v-65.33h2zm0-89.33h-2v-48.17h2z" fill="#5e5e5e"/><path d="M301 1082.53h-2v-1.03h2zM300 1235.26l-4.64-14.26h9.28z" fill="#5e5e5e"/><path d="M300 1238.5l-6-18.5h12zm-3.26-16.5l3.26 10.03 3.26-10.03z" fill="#5e5e5e"/><use xlink:href="#n" transform="matrix(1,0,0,1,217.44444444444446,1130.6666666666667) translate(0 16)"/><use xlink:href="#o" transform="matrix(1,0,0,1,217.44444444444446,1130.6666666666667) translate(91.8888888888889 16)"/><path d="M400 1440c0 11.05-8.95 20-20 20s-20-8.95-20-20 8.95-20 20-20 20 8.95 20 20z" stroke="#5e5e5e" stroke-width="3" fill="#fff"/><path d="M392 1440c0 6.63-5.37 12-12 12s-12-5.37-12-12 5.37-12 12-12 12 5.37 12 12z" stroke="#5e5e5e" stroke-width="3"/><path d="M1000 1440c0 11.05-8.95 20-20 20s-20-8.95-20-20 8.95-20 20-20 20 8.95 20 20z" stroke="#5e5e5e" stroke-width="3" fill="#fff"/><path d="M992 1440c0 6.63-5.37 12-12 12s-12-5.37-12-12 5.37-12 12-12 12 5.37 12 12z" stroke="#5e5e5e" stroke-width="3"/><path d="M300 1322.5v41.5c0 3.3 2.7 6 6 6h68c3.3 0 6 2.7 6 6v24" stroke="#5e5e5e" stroke-width="2" fill="none"/><path d="M301 1322.53h-2v-1.03h2z" fill="#5e5e5e"/><path d="M380 1415.26l-4.64-14.26h9.28z" stroke="#5e5e5e" stroke-width="2" fill="#5e5e5e"/><path d="M940 1322.5v41.5c0 3.3 2.7 6 6 6h28c3.3 0 6 2.7 6 6v24" stroke="#5e5e5e" stroke-width="2" fill="none"/><path d="M941 1322.53h-2v-1.03h2z" fill="#5e5e5e"/><path d="M980 1415.26l-4.64-14.26h9.28z" stroke="#5e5e5e" stroke-width="2" fill="#5e5e5e"/><path d="M596 260c-8.84 0-16 7.16-16 16v48c0 8.84 7.16 16 16 16h128c8.84 0 16-7.16 16-16v-48c0-8.84-7.16-16-16-16z" stroke="#5e5e5e" stroke-width="3" fill="#fff"/><use xlink:href="#y" transform="matrix(1,0,0,1,588,268) translate(44.28395061728396 23.111111111111114)"/><use xlink:href="#z" transform="matrix(1,0,0,1,588,268) translate(30.703703703703724 49.77777777777777)"/><path d="M655.76 464.24c2.34-2.34 6.14-2.34 8.48 0l11.52 11.52c2.34 2.34 2.34 6.14 0 8.48l-11.52 11.52c-2.34 2.34-6.14 2.34-8.48 0l-11.52-11.52c-2.34-2.34-2.34-6.14 0-8.48z" stroke="#5e5e5e" stroke-width="3" fill="#fff"/><path d="M660 342.5v100" stroke="#5e5e5e" stroke-width="2" fill="none"/><path d="M661 342.53h-2v-1.03h2z" fill="#5e5e5e"/><path d="M660 457.78l-4.64-14.27h9.28z" stroke="#5e5e5e" stroke-width="2" fill="#5e5e5e"/><path d="M316 620c-8.84 0-16 7.16-16 16v48c0 8.84 7.16 16 16 16h128c8.84 0 16-7.16 16-16v-48c0-8.84-7.16-16-16-16z" stroke="#5e5e5e" stroke-width="3" fill="#fff"/><use xlink:href="#a" transform="matrix(1,0,0,1,308,628) translate(30.117283950617285 23.111111111111114)"/><use xlink:href="#A" transform="matrix(1,0,0,1,308,628) translate(101.53703703703704 23.111111111111114)"/><use xlink:href="#B" transform="matrix(1,0,0,1,308,628) translate(26.969135802469133 49.77777777777778)"/><path d="M380 702.5v140.72" stroke="#5e5e5e" stroke-width="2" fill="none"/><path d="M381 702.53h-2v-1.03h2z" fill="#5e5e5e"/><path d="M380 858.5l-4.64-14.28h9.28z" stroke="#5e5e5e" stroke-width="2" fill="#5e5e5e"/><path d="M977.55 479.92l2.53 2.53.92 3.42v115.55h-2v-115.3l-.7-2.63-1.8-1.8-2.63-.7h-20.22v-2h20.48zM680 481v-2h165.25v2zM680 481h-1.15l.18-1.33-.15-.67H680zM980 616.68l-4.64-14.26h9.28z" fill="#5e5e5e"/><path d="M980 619.92l-6-18.5h12zm-3.26-16.5l3.26 10.03 3.26-10.03z" fill="#5e5e5e"/><use xlink:href="#C" transform="matrix(1,0,0,1,845.2545545971919,466.6666666666667) translate(0 17.77777777777778)"/><use xlink:href="#D" transform="matrix(1,0,0,1,845.2545545971919,466.6666666666667) translate(49.19753086419753 17.77777777777778)"/><path d="M381 600h-2V493.33h2zm259-119H508.46v-2H640zM640.97 480.33l.15.67H640v-2h1.15zM380 615.26L375.36 601h9.28z" fill="#5e5e5e"/><path d="M380 618.5l-6-18.5h12zm-3.26-16.5l3.26 10.03 3.26-10.03z" fill="#5e5e5e"/><use xlink:href="#E" transform="matrix(1,0,0,1,374.065217931242,466.6666666666667) translate(0 17.77777777777778)"/><use xlink:href="#D" transform="matrix(1,0,0,1,374.065217931242,466.6666666666667) translate(75.18518518518518 17.77777777777778)"/><path d="M860 100h136l24 24v96H860z" stroke="#5e5e5e" stroke-width="3" fill="#fff"/><path d="M996 101.43V124h22.57" stroke="#5e5e5e" stroke-width="3" fill="#fff"/><use xlink:href="#F" transform="matrix(1,0,0,1,865,105) translate(0 45.27777777777778)"/><use xlink:href="#d" transform="matrix(1,0,0,1,865,105) translate(83.33333333333333 45.27777777777778)"/><use xlink:href="#e" transform="matrix(1,0,0,1,865,105) translate(0 71.94444444444446)"/><path d="M857.5 160h-4.3m-8.58 0h-8.58m-8.58 0h-8.6m-8.57 0H806l-3.03.82-2.15 2.15L800 166v4m0 8v8m0 8v8m0 8v8m0 8v8m0 8v8m0 8v8m0 8v8m0 8v4l-.82 3.03-2.15 2.15-3.03.82h-4.25m-8.5 0h-8.5m-8.5 0H760" stroke="#5e5e5e" stroke-width="2" fill="none"/><path d="M858.5 161h-1.03v-2h1.03z" fill="#5e5e5e"/><path d="M744.74 300l14.26-4.64v9.28z" stroke="#5e5e5e" stroke-width="2" fill="#5e5e5e"/><path d="M1120 468.33h131.33L1280 497v114.67h-160z" stroke="#5e5e5e" stroke-width="3" fill="#fff"/><path d="M1251.33 469.76V497h27.24" stroke="#5e5e5e" stroke-width="3" fill="#fff"/><g><use xlink:href="#G" transform="matrix(1,0,0,1,1125,473.3333333333333) translate(0 21.96527777777778)"/><use xlink:href="#H" transform="matrix(1,0,0,1,1125,473.3333333333333) translate(0 48.63194444444444)"/><use xlink:href="#I" transform="matrix(1,0,0,1,1125,473.3333333333333) translate(0 75.29861111111111)"/><use xlink:href="#J" transform="matrix(1,0,0,1,1125,473.3333333333333) translate(50.49382716049383 75.29861111111111)"/><use xlink:href="#K" transform="matrix(1,0,0,1,1125,473.3333333333333) translate(0 101.96527777777777)"/><use xlink:href="#L" transform="matrix(1,0,0,1,1125,473.3333333333333) translate(24.691358024691358 101.96527777777777)"/><use xlink:href="#d" transform="matrix(1,0,0,1,1125,473.3333333333333) translate(70.37037037037037 101.96527777777777)"/><use xlink:href="#M" transform="matrix(1,0,0,1,1125,473.3333333333333) translate(0 128.63194444444446)"/><use xlink:href="#j" transform="matrix(1,0,0,1,1125,473.3333333333333) translate(29.5679012345679 128.63194444444446)"/></g><path d="M1200 614.17v3.43m0 6.88v6.87m0 6.88v6.87m0 6.88v3.44l-.82 3.03-2.15 2.15-3.03.82h-4.07m-8.14 0h-8.16m-8.14 0h-8.14m-8.14 0h-8.15m-8.14 0h-8.14m-8.16 0h-8.14m-8.14 0h-8.14m-8.15 0H1080" stroke="#5e5e5e" stroke-width="2" fill="none"/><path d="M1201 614.2h-2v-1.03h2z" fill="#5e5e5e"/><path d="M1064.74 661.42l14.26-4.64v9.27z" stroke="#5e5e5e" stroke-width="2" fill="#5e5e5e"/><path d="M60 480h136l24 24v96H60z" stroke="#5e5e5e" stroke-width="3" fill="#fff"/><path d="M196 481.43V504h22.57" stroke="#5e5e5e" stroke-width="3" fill="#fff"/><g><use xlink:href="#N" transform="matrix(1,0,0,1,65,485) translate(0 17.77777777777778)"/><use xlink:href="#d" transform="matrix(1,0,0,1,65,485) translate(69.07407407407408 17.77777777777778)"/><use xlink:href="#O" transform="matrix(1,0,0,1,65,485) translate(0 44.44444444444444)"/><use xlink:href="#P" transform="matrix(1,0,0,1,65,485) translate(23.39506172839506 44.44444444444444)"/><use xlink:href="#Q" transform="matrix(1,0,0,1,65,485) translate(60.4320987654321 44.44444444444444)"/><use xlink:href="#R" transform="matrix(1,0,0,1,65,485) translate(123.39506172839506 44.44444444444444)"/><use xlink:href="#S" transform="matrix(1,0,0,1,65,485) translate(0 71.11111111111111)"/><use xlink:href="#T" transform="matrix(1,0,0,1,65,485) translate(48.148148148148145 71.11111111111111)"/><use xlink:href="#U" transform="matrix(1,0,0,1,65,485) translate(0 97.77777777777777)"/></g><path d="M140 602.5v4.3m0 8.58v8.58m0 8.58v8.6m0 8.57v4.3l.82 3.03 2.15 2.15 3.03.82h4.2m8.36 0h8.38m8.37 0h8.4m8.36 0h8.38m8.37 0h8.4m8.36 0h8.38m8.37 0h8.4m8.36 0h8.38m8.37 0h4.2" stroke="#5e5e5e" stroke-width="2" fill="none"/><path d="M141 602.53h-2v-1.03h2z" fill="#5e5e5e"/><path d="M295.26 660L281 664.64v-9.28z" stroke="#5e5e5e" stroke-width="2" fill="#5e5e5e"/><path d="M580 1280h136l24 24v96H580z" stroke="#5e5e5e" stroke-width="3" fill="#fff"/><path d="M716 1281.43V1304h22.57" stroke="#5e5e5e" stroke-width="3" fill="#fff"/><g><use xlink:href="#V" transform="matrix(1,0,0,1,585,1285) translate(0 22.875)"/><use xlink:href="#W" transform="matrix(1,0,0,1,585,1285) translate(85.44444444444443 22.875)"/><use xlink:href="#X" transform="matrix(1,0,0,1,585,1285) translate(0 46.87499999999999)"/><use xlink:href="#Y" transform="matrix(1,0,0,1,585,1285) translate(79.88888888888887 46.87499999999999)"/><use xlink:href="#Z" transform="matrix(1,0,0,1,585,1285) translate(0 70.87499999999999)"/><use xlink:href="#aa" transform="matrix(1,0,0,1,585,1285) translate(33.33333333333333 70.87499999999999)"/><use xlink:href="#ab" transform="matrix(1,0,0,1,585,1285) translate(108.83333333333331 70.87499999999999)"/><use xlink:href="#ac" transform="matrix(1,0,0,1,585,1285) translate(0 94.87499999999999)"/></g><path d="M742.5 1340h4.3m8.58 0h8.58m8.58 0h8.6m8.57 0h4.3l3.03-.82 2.15-2.15.82-3.03v-4m0-8v-8m0-8v-8m0-8v-4l.82-3.03 2.15-2.15 3.03-.82h4.25m8.5 0h8.5m8.5 0H840" stroke="#5e5e5e" stroke-width="2" fill="none"/><path d="M742.53 1341h-1.03v-2h1.03z" fill="#5e5e5e"/><path d="M855.26 1280l-14.26 4.64v-9.28z" stroke="#5e5e5e" stroke-width="2" fill="#5e5e5e"/><path d="M577.5 1340h-3.98m-7.96 0h-7.96m-7.95 0h-7.96m-7.97 0h-7.96m-7.96 0h-7.95m-7.95 0h-7.96m-7.96 0h-7.96m-7.96 0h-7.95m-7.95 0h-7.96m-7.97 0h-7.96m-7.96 0h-7.94m-7.96 0h-7.96m-7.96 0h-7.96m-7.96 0h-7.95m-7.95 0h-3.98" stroke="#5e5e5e" stroke-width="2" fill="none"/><path d="M578.5 1341h-1.03v-2h1.03z" fill="#5e5e5e"/><path d="M354.67 1324.74l4.63 14.26h-9.27z" stroke="#5e5e5e" stroke-width="2" fill="#5e5e5e"/><defs><path fill="#333" d="M233-177c-1 41-23 64-60 70L243 0h-38l-65-103H63V0H30v-248c88 3 205-21 203 71zM63-129c60-2 137 13 137-47 0-61-80-42-137-45v92" id="ad"/><path fill="#333" d="M100-194c63 0 86 42 84 106H49c0 40 14 67 53 68 26 1 43-12 49-29l28 8c-11 28-37 45-77 45C44 4 14-33 15-96c1-61 26-98 85-98zm52 81c6-60-76-77-97-28-3 7-6 17-6 28h103" id="ae"/><path fill="#333" d="M115-194c55 1 70 41 70 98S169 2 115 4C84 4 66-9 55-30l1 105H24l-1-265h31l2 30c10-21 28-34 59-34zm-8 174c40 0 45-34 45-75s-6-73-45-74c-42 0-51 32-51 76 0 43 10 73 51 73" id="af"/><path fill="#333" d="M141-36C126-15 110 5 73 4 37 3 15-17 15-53c-1-64 63-63 125-63 3-35-9-54-41-54-24 1-41 7-42 31l-33-3c5-37 33-52 76-52 45 0 72 20 72 64v82c-1 20 7 32 28 27v20c-31 9-61-2-59-35zM48-53c0 20 12 33 32 33 41-3 63-29 60-74-43 2-92-5-92 41" id="ag"/><path fill="#333" d="M24-231v-30h32v30H24zM24 0v-190h32V0H24" id="ah"/><path fill="#333" d="M114-163C36-179 61-72 57 0H25l-1-190h30c1 12-1 29 2 39 6-27 23-49 58-41v29" id="ai"/><g id="a"><use transform="matrix(0.06172839506172839,0,0,0.06172839506172839,0,0)" xlink:href="#ad"/><use transform="matrix(0.06172839506172839,0,0,0.06172839506172839,15.987654320987653,0)" xlink:href="#ae"/><use transform="matrix(0.06172839506172839,0,0,0.06172839506172839,28.333333333333332,0)" xlink:href="#af"/><use transform="matrix(0.06172839506172839,0,0,0.06172839506172839,40.67901234567901,0)" xlink:href="#ag"/><use transform="matrix(0.06172839506172839,0,0,0.06172839506172839,53.02469135802469,0)" xlink:href="#ah"/><use transform="matrix(0.06172839506172839,0,0,0.06172839506172839,57.901234567901234,0)" xlink:href="#ai"/></g><path fill="#333" d="M212-179c-10-28-35-45-73-45-59 0-87 40-87 99 0 60 29 101 89 101 43 0 62-24 78-52l27 14C228-24 195 4 139 4 59 4 22-46 18-125c-6-104 99-153 187-111 19 9 31 26 39 46" id="aj"/><path fill="#333" d="M179-190L93 31C79 59 56 82 12 73V49c39 6 53-20 64-50L1-190h34L92-34l54-156h33" id="ak"/><path fill="#333" d="M96-169c-40 0-48 33-48 73s9 75 48 75c24 0 41-14 43-38l32 2c-6 37-31 61-74 61-59 0-76-41-82-99-10-93 101-131 147-64 4 7 5 14 7 22l-32 3c-4-21-16-35-41-35" id="al"/><path fill="#333" d="M24 0v-261h32V0H24" id="am"/><g id="b"><use transform="matrix(0.06172839506172839,0,0,0.06172839506172839,0,0)" xlink:href="#aj"/><use transform="matrix(0.06172839506172839,0,0,0.06172839506172839,15.987654320987653,0)" xlink:href="#ak"/><use transform="matrix(0.06172839506172839,0,0,0.06172839506172839,27.098765432098766,0)" xlink:href="#al"/><use transform="matrix(0.06172839506172839,0,0,0.06172839506172839,38.20987654320987,0)" xlink:href="#am"/><use transform="matrix(0.06172839506172839,0,0,0.06172839506172839,43.08641975308642,0)" xlink:href="#ae"/></g><path fill="#333" d="M232-93c-1 65-40 97-104 97C67 4 28-28 28-90v-158h33c8 89-33 224 67 224 102 0 64-133 71-224h33v155" id="an"/><path fill="#333" d="M85-194c31 0 48 13 60 33l-1-100h32l1 261h-30c-2-10 0-23-3-31C134-8 116 4 85 4 32 4 16-35 15-94c0-66 23-100 70-100zm9 24c-40 0-46 34-46 75 0 40 6 74 45 74 42 0 51-32 51-76 0-42-9-74-50-73" id="ao"/><path fill="#333" d="M59-47c-2 24 18 29 38 22v24C64 9 27 4 27-40v-127H5v-23h24l9-43h21v43h35v23H59v120" id="ap"/><g id="c"><use transform="matrix(0.06172839506172839,0,0,0.06172839506172839,0,0)" xlink:href="#an"/><use transform="matrix(0.06172839506172839,0,0,0.06172839506172839,15.987654320987653,0)" xlink:href="#af"/><use transform="matrix(0.06172839506172839,0,0,0.06172839506172839,28.333333333333332,0)" xlink:href="#ao"/><use transform="matrix(0.06172839506172839,0,0,0.06172839506172839,40.67901234567901,0)" xlink:href="#ag"/><use transform="matrix(0.06172839506172839,0,0,0.06172839506172839,53.02469135802469,0)" xlink:href="#ap"/><use transform="matrix(0.06172839506172839,0,0,0.06172839506172839,59.19753086419753,0)" xlink:href="#ae"/></g><g id="d"><use transform="matrix(0.06172839506172839,0,0,0.06172839506172839,0,0)" xlink:href="#aj"/><use transform="matrix(0.06172839506172839,0,0,0.06172839506172839,15.987654320987653,0)" xlink:href="#ak"/><use transform="matrix(0.06172839506172839,0,0,0.06172839506172839,27.098765432098766,0)" xlink:href="#al"/><use transform="matrix(0.06172839506172839,0,0,0.06172839506172839,38.20987654320987,0)" xlink:href="#am"/><use transform="matrix(0.06172839506172839,0,0,0.06172839506172839,43.08641975308642,0)" xlink:href="#ae"/></g><path fill="#333" d="M100-194c62-1 85 37 85 99 1 63-27 99-86 99S16-35 15-95c0-66 28-99 85-99zM99-20c44 1 53-31 53-75 0-43-8-75-51-75s-53 32-53 75 10 74 51 75" id="aq"/><path fill="#333" d="M135-143c-3-34-86-38-87 0 15 53 115 12 119 90S17 21 10-45l28-5c4 36 97 45 98 0-10-56-113-15-118-90-4-57 82-63 122-42 12 7 21 19 24 35" id="ar"/><g id="e"><use transform="matrix(0.06172839506172839,0,0,0.06172839506172839,0,0)" xlink:href="#ad"/><use transform="matrix(0.06172839506172839,0,0,0.06172839506172839,15.987654320987653,0)" xlink:href="#ae"/><use transform="matrix(0.06172839506172839,0,0,0.06172839506172839,28.333333333333332,0)" xlink:href="#al"/><use transform="matrix(0.06172839506172839,0,0,0.06172839506172839,39.44444444444444,0)" xlink:href="#aq"/><use transform="matrix(0.06172839506172839,0,0,0.06172839506172839,51.79012345679012,0)" xlink:href="#ai"/><use transform="matrix(0.06172839506172839,0,0,0.06172839506172839,59.1358024691358,0)" xlink:href="#ao"/><use transform="matrix(0.06172839506172839,0,0,0.06172839506172839,71.48148148148148,0)" xlink:href="#ar"/></g><path fill="#333" d="M205 0l-28-72H64L36 0H1l101-248h38L239 0h-34zm-38-99l-47-123c-12 45-31 82-46 123h93" id="as"/><g id="f"><use transform="matrix(0.06172839506172839,0,0,0.06172839506172839,0,0)" xlink:href="#as"/><use transform="matrix(0.06172839506172839,0,0,0.06172839506172839,14.814814814814813,0)" xlink:href="#ao"/><use transform="matrix(0.06172839506172839,0,0,0.06172839506172839,27.160493827160494,0)" xlink:href="#ao"/></g><path fill="#333" d="M30-248c87 1 191-15 191 75 0 78-77 80-158 76V0H30v-248zm33 125c57 0 124 11 124-50 0-59-68-47-124-48v98" id="at"/><path fill="#333" d="M210-169c-67 3-38 105-44 169h-31v-121c0-29-5-50-35-48C34-165 62-65 56 0H25l-1-190h30c1 10-1 24 2 32 10-44 99-50 107 0 11-21 27-35 58-36 85-2 47 119 55 194h-31v-121c0-29-5-49-35-48" id="au"/><path fill="#333" d="M117-194c89-4 53 116 60 194h-32v-121c0-31-8-49-39-48C34-167 62-67 57 0H25l-1-190h30c1 10-1 24 2 32 11-22 29-35 61-36" id="av"/><g id="g"><use transform="matrix(0.06172839506172839,0,0,0.06172839506172839,0,0)" xlink:href="#at"/><use transform="matrix(0.06172839506172839,0,0,0.06172839506172839,14.814814814814813,0)" xlink:href="#ae"/><use transform="matrix(0.06172839506172839,0,0,0.06172839506172839,27.160493827160494,0)" xlink:href="#ai"/><use transform="matrix(0.06172839506172839,0,0,0.06172839506172839,34.50617283950617,0)" xlink:href="#au"/><use transform="matrix(0.06172839506172839,0,0,0.06172839506172839,52.96296296296296,0)" xlink:href="#ah"/><use transform="matrix(0.06172839506172839,0,0,0.06172839506172839,57.839506172839506,0)" xlink:href="#ar"/><use transform="matrix(0.06172839506172839,0,0,0.06172839506172839,68.95061728395062,0)" xlink:href="#ar"/><use transform="matrix(0.06172839506172839,0,0,0.06172839506172839,80.06172839506173,0)" xlink:href="#ah"/><use transform="matrix(0.06172839506172839,0,0,0.06172839506172839,84.93827160493828,0)" xlink:href="#aq"/><use transform="matrix(0.06172839506172839,0,0,0.06172839506172839,97.28395061728396,0)" xlink:href="#av"/></g><g id="h"><use transform="matrix(0.06172839506172839,0,0,0.06172839506172839,0,0)" xlink:href="#al"/><use transform="matrix(0.06172839506172839,0,0,0.06172839506172839,11.11111111111111,0)" xlink:href="#ak"/><use transform="matrix(0.06172839506172839,0,0,0.06172839506172839,22.22222222222222,0)" xlink:href="#al"/><use transform="matrix(0.06172839506172839,0,0,0.06172839506172839,33.33333333333333,0)" xlink:href="#am"/><use transform="matrix(0.06172839506172839,0,0,0.06172839506172839,38.20987654320987,0)" xlink:href="#ae"/></g><g id="i"><use transform="matrix(0.06172839506172839,0,0,0.06172839506172839,0,0)" xlink:href="#ap"/><use transform="matrix(0.06172839506172839,0,0,0.06172839506172839,6.172839506172839,0)" xlink:href="#aq"/></g><path fill="#333" d="M160-131c35 5 61 23 61 61C221 17 115-2 30 0v-248c76 3 177-17 177 60 0 33-19 50-47 57zm-97-11c50-1 110 9 110-42 0-47-63-36-110-37v79zm0 115c55-2 124 14 124-45 0-56-70-42-124-44v89" id="aw"/><path fill="#333" d="M106-169C34-169 62-67 57 0H25v-261h32l-1 103c12-21 28-36 61-36 89 0 53 116 60 194h-32v-121c2-32-8-49-39-48" id="ax"/><g id="j"><use transform="matrix(0.06172839506172839,0,0,0.06172839506172839,0,0)" xlink:href="#aw"/><use transform="matrix(0.06172839506172839,0,0,0.06172839506172839,14.814814814814813,0)" xlink:href="#ag"/><use transform="matrix(0.06172839506172839,0,0,0.06172839506172839,27.160493827160494,0)" xlink:href="#ap"/><use transform="matrix(0.06172839506172839,0,0,0.06172839506172839,33.333333333333336,0)" xlink:href="#al"/><use transform="matrix(0.06172839506172839,0,0,0.06172839506172839,44.44444444444444,0)" xlink:href="#ax"/></g><path fill="#333" d="M175 0L67-191c6 58 2 128 3 191H24v-248h59L193-55c-6-58-2-129-3-193h46V0h-61" id="ay"/><path fill="#333" d="M110-194c64 0 96 36 96 99 0 64-35 99-97 99-61 0-95-36-95-99 0-62 34-99 96-99zm-1 164c35 0 45-28 45-65 0-40-10-65-43-65-34 0-45 26-45 65 0 36 10 65 43 65" id="az"/><g id="k"><use transform="matrix(0.04938271604938272,0,0,0.04938271604938272,0,0)" xlink:href="#ay"/><use transform="matrix(0.04938271604938272,0,0,0.04938271604938272,12.790123456790125,0)" xlink:href="#az"/></g><path fill="#333" d="M24-248c93 1 206-16 204 79-1 75-69 88-152 82V0H24v-248zm52 121c47 0 100 7 100-41 0-47-54-39-100-39v80" id="aA"/><path fill="#333" d="M185-48c-13 30-37 53-82 52C43 2 14-33 14-96s30-98 90-98c62 0 83 45 84 108H66c0 31 8 55 39 56 18 0 30-7 34-22zm-45-69c5-46-57-63-70-21-2 6-4 13-4 21h74" id="aB"/><path fill="#333" d="M135-150c-39-12-60 13-60 57V0H25l-1-190h47c2 13-1 29 3 40 6-28 27-53 61-41v41" id="aC"/><path fill="#333" d="M220-157c-53 9-28 100-34 157h-49v-107c1-27-5-49-29-50C55-147 81-57 75 0H25l-1-190h47c2 12-1 28 3 38 10-53 101-56 108 0 13-22 24-43 59-42 82 1 51 116 57 194h-49v-107c-1-25-5-48-29-50" id="aD"/><path fill="#333" d="M25-224v-37h50v37H25zM25 0v-190h50V0H25" id="aE"/><path fill="#333" d="M137-138c1-29-70-34-71-4 15 46 118 7 119 86 1 83-164 76-172 9l43-7c4 19 20 25 44 25 33 8 57-30 24-41C81-84 22-81 20-136c-2-80 154-74 161-7" id="aF"/><path fill="#333" d="M135-194c87-1 58 113 63 194h-50c-7-57 23-157-34-157-59 0-34 97-39 157H25l-1-190h47c2 12-1 28 3 38 12-26 28-41 61-42" id="aG"/><g id="l"><use transform="matrix(0.06172839506172839,0,0,0.06172839506172839,0,0)" xlink:href="#aA"/><use transform="matrix(0.06172839506172839,0,0,0.06172839506172839,14.814814814814813,0)" xlink:href="#aB"/><use transform="matrix(0.06172839506172839,0,0,0.06172839506172839,27.160493827160494,0)" xlink:href="#aC"/><use transform="matrix(0.06172839506172839,0,0,0.06172839506172839,35.80246913580247,0)" xlink:href="#aD"/><use transform="matrix(0.06172839506172839,0,0,0.06172839506172839,55.55555555555556,0)" xlink:href="#aE"/><use transform="matrix(0.06172839506172839,0,0,0.06172839506172839,61.7283950617284,0)" xlink:href="#aF"/><use transform="matrix(0.06172839506172839,0,0,0.06172839506172839,74.07407407407408,0)" xlink:href="#aF"/><use transform="matrix(0.06172839506172839,0,0,0.06172839506172839,86.41975308641976,0)" xlink:href="#aE"/><use transform="matrix(0.06172839506172839,0,0,0.06172839506172839,92.5925925925926,0)" xlink:href="#az"/><use transform="matrix(0.06172839506172839,0,0,0.06172839506172839,106.11111111111111,0)" xlink:href="#aG"/></g><path fill="#333" d="M67-125c0 54 23 88 75 88 28 0 53-7 68-21v-34h-60v-39h108v91C232-14 192 4 140 4 58 4 20-42 15-125 8-236 126-280 215-234c19 10 29 26 37 47l-47 15c-11-23-29-39-63-39-53 1-75 33-75 86" id="aH"/><path fill="#333" d="M128 0H69L1-190h53L99-40l48-150h52" id="aI"/><g id="m"><use transform="matrix(0.06172839506172839,0,0,0.06172839506172839,0,0)" xlink:href="#aH"/><use transform="matrix(0.06172839506172839,0,0,0.06172839506172839,17.28395061728395,0)" xlink:href="#aE"/><use transform="matrix(0.06172839506172839,0,0,0.06172839506172839,23.456790123456788,0)" xlink:href="#aI"/><use transform="matrix(0.06172839506172839,0,0,0.06172839506172839,35.80246913580247,0)" xlink:href="#aB"/><use transform="matrix(0.06172839506172839,0,0,0.06172839506172839,48.148148148148145,0)" xlink:href="#aG"/></g><path fill="#333" d="M238-95c0 69-44 99-111 99C63 4 22-25 22-93v-155h51v151c-1 38 19 59 55 60 90 1 49-130 58-211h52v153" id="aJ"/><path fill="#333" d="M135-194c53 0 70 44 70 98 0 56-19 98-73 100-31 1-45-17-59-34 3 33 2 69 2 105H25l-1-265h48c2 10 0 23 3 31 11-24 29-35 60-35zM114-30c33 0 39-31 40-66 0-38-9-64-40-64-56 0-55 130 0 130" id="aK"/><path fill="#333" d="M88-194c31-1 46 15 58 34l-1-101h50l1 261h-48c-2-10 0-23-3-31C134-8 116 4 84 4 32 4 16-41 15-95c0-56 19-97 73-99zm17 164c33 0 40-30 41-66 1-37-9-64-41-64s-38 30-39 65c0 43 13 65 39 65" id="aL"/><path fill="#333" d="M133-34C117-15 103 5 69 4 32 3 11-16 11-54c-1-60 55-63 116-61 1-26-3-47-28-47-18 1-26 9-28 27l-52-2c7-38 36-58 82-57s74 22 75 68l1 82c-1 14 12 18 25 15v27c-30 8-71 5-69-32zm-48 3c29 0 43-24 42-57-32 0-66-3-65 30 0 17 8 27 23 27" id="aM"/><path fill="#333" d="M115-3C79 11 28 4 28-45v-112H4v-33h27l15-45h31v45h36v33H77v99c-1 23 16 31 38 25v30" id="aN"/><path fill="#333" d="M195-6C206 82 75 100 31 46c-4-6-6-13-8-21l49-6c3 16 16 24 34 25 40 0 42-37 40-79-11 22-30 35-61 35-53 0-70-43-70-97 0-56 18-96 73-97 30 0 46 14 59 34l2-30h47zm-90-29c32 0 41-27 41-63 0-35-9-62-40-62-32 0-39 29-40 63 0 36 9 62 39 62" id="aO"/><g id="n"><use transform="matrix(0.05555555555555555,0,0,0.05555555555555555,0,0)" xlink:href="#aJ"/><use transform="matrix(0.05555555555555555,0,0,0.05555555555555555,14.388888888888888,0)" xlink:href="#aK"/><use transform="matrix(0.05555555555555555,0,0,0.05555555555555555,26.555555555555554,0)" xlink:href="#aL"/><use transform="matrix(0.05555555555555555,0,0,0.05555555555555555,38.72222222222222,0)" xlink:href="#aM"/><use transform="matrix(0.05555555555555555,0,0,0.05555555555555555,49.83333333333333,0)" xlink:href="#aN"/><use transform="matrix(0.05555555555555555,0,0,0.05555555555555555,56.44444444444444,0)" xlink:href="#aE"/><use transform="matrix(0.05555555555555555,0,0,0.05555555555555555,62,0)" xlink:href="#aG"/><use transform="matrix(0.05555555555555555,0,0,0.05555555555555555,74.16666666666667,0)" xlink:href="#aO"/></g><path fill="#333" d="M190-63c-7 42-38 67-86 67-59 0-84-38-90-98-12-110 154-137 174-36l-49 2c-2-19-15-32-35-32-30 0-35 28-38 64-6 74 65 87 74 30" id="aP"/><g id="o"><use transform="matrix(0.05555555555555555,0,0,0.05555555555555555,0,0)" xlink:href="#aC"/><use transform="matrix(0.05555555555555555,0,0,0.05555555555555555,7.777777777777778,0)" xlink:href="#aB"/><use transform="matrix(0.05555555555555555,0,0,0.05555555555555555,18.88888888888889,0)" xlink:href="#aP"/><use transform="matrix(0.05555555555555555,0,0,0.05555555555555555,30,0)" xlink:href="#az"/><use transform="matrix(0.05555555555555555,0,0,0.05555555555555555,42.166666666666664,0)" xlink:href="#aC"/><use transform="matrix(0.05555555555555555,0,0,0.05555555555555555,49.94444444444444,0)" xlink:href="#aL"/><use transform="matrix(0.05555555555555555,0,0,0.05555555555555555,62.11111111111111,0)" xlink:href="#aF"/></g><path fill="#333" d="M169-182c-1-43-94-46-97-3 18 66 151 10 154 114 3 95-165 93-204 36-6-8-10-19-12-30l50-8c3 46 112 56 116 5-17-69-150-10-154-114-4-87 153-88 188-35 5 8 8 18 10 28" id="aQ"/><g id="p"><use transform="matrix(0.06172839506172839,0,0,0.06172839506172839,0,0)" xlink:href="#aQ"/><use transform="matrix(0.06172839506172839,0,0,0.06172839506172839,14.814814814814813,0)" xlink:href="#aB"/><use transform="matrix(0.06172839506172839,0,0,0.06172839506172839,27.160493827160494,0)" xlink:href="#aG"/><use transform="matrix(0.06172839506172839,0,0,0.06172839506172839,40.67901234567901,0)" xlink:href="#aL"/></g><path fill="#333" d="M67-125c0 53 21 87 73 88 37 1 54-22 65-47l45 17C233-25 199 4 140 4 58 4 20-42 15-125 8-235 124-281 211-232c18 10 29 29 36 50l-46 12c-8-25-30-41-62-41-52 0-71 34-72 86" id="aR"/><path fill="#333" d="M123 10C108 53 80 86 19 72V37c35 8 53-11 59-39L3-190h52l48 148c12-52 28-100 44-148h51" id="aS"/><path fill="#333" d="M25 0v-261h50V0H25" id="aT"/><g id="q"><use transform="matrix(0.06172839506172839,0,0,0.06172839506172839,0,0)" xlink:href="#aR"/><use transform="matrix(0.06172839506172839,0,0,0.06172839506172839,15.987654320987653,0)" xlink:href="#aS"/><use transform="matrix(0.06172839506172839,0,0,0.06172839506172839,28.333333333333332,0)" xlink:href="#aP"/><use transform="matrix(0.06172839506172839,0,0,0.06172839506172839,40.67901234567901,0)" xlink:href="#aT"/><use transform="matrix(0.06172839506172839,0,0,0.06172839506172839,46.851851851851855,0)" xlink:href="#aB"/></g><path fill="#333" d="M76-208v77h127v40H76V0H24v-248h183v40H76" id="aU"/><g id="r"><use transform="matrix(0.06172839506172839,0,0,0.06172839506172839,0,0)" xlink:href="#aU"/><use transform="matrix(0.06172839506172839,0,0,0.06172839506172839,13.518518518518517,0)" xlink:href="#az"/><use transform="matrix(0.06172839506172839,0,0,0.06172839506172839,27.037037037037035,0)" xlink:href="#aC"/></g><path fill="#333" d="M240-174c0 40-23 61-54 70L253 0h-59l-57-94H76V0H24v-248c93 4 217-23 216 74zM76-134c48-2 112 12 112-38 0-48-66-32-112-35v73" id="aV"/><g id="s"><use transform="matrix(0.06172839506172839,0,0,0.06172839506172839,0,0)" xlink:href="#aV"/><use transform="matrix(0.06172839506172839,0,0,0.06172839506172839,15.987654320987653,0)" xlink:href="#aB"/><use transform="matrix(0.06172839506172839,0,0,0.06172839506172839,28.333333333333332,0)" xlink:href="#aK"/><use transform="matrix(0.06172839506172839,0,0,0.06172839506172839,41.85185185185185,0)" xlink:href="#aM"/><use transform="matrix(0.06172839506172839,0,0,0.06172839506172839,54.197530864197525,0)" xlink:href="#aE"/><use transform="matrix(0.06172839506172839,0,0,0.06172839506172839,60.37037037037037,0)" xlink:href="#aC"/></g><g id="t"><use transform="matrix(0.05555555555555555,0,0,0.05555555555555555,0,0)" xlink:href="#ay"/><use transform="matrix(0.05555555555555555,0,0,0.05555555555555555,14.388888888888888,0)" xlink:href="#az"/></g><g id="u"><use transform="matrix(0.05555555555555555,0,0,0.05555555555555555,0,0)" xlink:href="#aP"/><use transform="matrix(0.05555555555555555,0,0,0.05555555555555555,11.11111111111111,0)" xlink:href="#aS"/><use transform="matrix(0.05555555555555555,0,0,0.05555555555555555,22.22222222222222,0)" xlink:href="#aP"/><use transform="matrix(0.05555555555555555,0,0,0.05555555555555555,33.33333333333333,0)" xlink:href="#aT"/><use transform="matrix(0.05555555555555555,0,0,0.05555555555555555,38.888888888888886,0)" xlink:href="#aB"/></g><g id="v"><use transform="matrix(0.05555555555555555,0,0,0.05555555555555555,0,0)" xlink:href="#aN"/><use transform="matrix(0.05555555555555555,0,0,0.05555555555555555,6.611111111111111,0)" xlink:href="#az"/></g><g id="w"><use transform="matrix(0.05555555555555555,0,0,0.05555555555555555,0,0)" xlink:href="#aV"/><use transform="matrix(0.05555555555555555,0,0,0.05555555555555555,14.388888888888888,0)" xlink:href="#aB"/><use transform="matrix(0.05555555555555555,0,0,0.05555555555555555,25.5,0)" xlink:href="#aK"/><use transform="matrix(0.05555555555555555,0,0,0.05555555555555555,37.666666666666664,0)" xlink:href="#aM"/><use transform="matrix(0.05555555555555555,0,0,0.05555555555555555,48.77777777777777,0)" xlink:href="#aE"/><use transform="matrix(0.05555555555555555,0,0,0.05555555555555555,54.33333333333333,0)" xlink:href="#aC"/></g><g id="y"><use transform="matrix(0.06172839506172837,0,0,0.06172839506172837,0,0)" xlink:href="#aj"/><use transform="matrix(0.06172839506172837,0,0,0.06172839506172837,15.987654320987648,0)" xlink:href="#ak"/><use transform="matrix(0.06172839506172837,0,0,0.06172839506172837,27.098765432098755,0)" xlink:href="#al"/><use transform="matrix(0.06172839506172837,0,0,0.06172839506172837,38.20987654320986,0)" xlink:href="#am"/><use transform="matrix(0.06172839506172837,0,0,0.06172839506172837,43.0864197530864,0)" xlink:href="#ae"/></g><g id="z"><use transform="matrix(0.06172839506172837,0,0,0.06172839506172837,0,0)" xlink:href="#ad"/><use transform="matrix(0.06172839506172837,0,0,0.06172839506172837,15.987654320987648,0)" xlink:href="#ae"/><use transform="matrix(0.06172839506172837,0,0,0.06172839506172837,28.33333333333332,0)" xlink:href="#al"/><use transform="matrix(0.06172839506172837,0,0,0.06172839506172837,39.44444444444443,0)" xlink:href="#aq"/><use transform="matrix(0.06172839506172837,0,0,0.06172839506172837,51.7901234567901,0)" xlink:href="#ai"/><use transform="matrix(0.06172839506172837,0,0,0.06172839506172837,59.135802469135776,0)" xlink:href="#ao"/><use transform="matrix(0.06172839506172837,0,0,0.06172839506172837,71.48148148148145,0)" xlink:href="#ar"/></g><path fill="#333" d="M33 0v-248h34V0H33" id="aW"/><path fill="#333" d="M101-234c-31-9-42 10-38 44h38v23H63V0H32v-167H5v-23h27c-7-52 17-82 69-68v24" id="aX"/><g id="A"><use transform="matrix(0.06172839506172839,0,0,0.06172839506172839,0,0)" xlink:href="#aW"/><use transform="matrix(0.06172839506172839,0,0,0.06172839506172839,6.172839506172839,0)" xlink:href="#aX"/></g><path fill="#333" d="M190 0L58-211 59 0H30v-248h39L202-35l-2-213h31V0h-41" id="aY"/><path fill="#333" d="M103-251c84 0 111 97 45 133-19 10-37 24-39 52H78c0-63 77-55 77-114 0-30-21-42-52-43-32 0-53 17-56 46l-32-2c7-45 34-72 88-72zM77 0v-35h34V0H77" id="aZ"/><g id="B"><use transform="matrix(0.06172839506172839,0,0,0.06172839506172839,0,0)" xlink:href="#aY"/><use transform="matrix(0.06172839506172839,0,0,0.06172839506172839,15.987654320987653,0)" xlink:href="#ae"/><use transform="matrix(0.06172839506172839,0,0,0.06172839506172839,28.333333333333332,0)" xlink:href="#ae"/><use transform="matrix(0.06172839506172839,0,0,0.06172839506172839,40.67901234567901,0)" xlink:href="#ao"/><use transform="matrix(0.06172839506172839,0,0,0.06172839506172839,53.02469135802469,0)" xlink:href="#ae"/><use transform="matrix(0.06172839506172839,0,0,0.06172839506172839,65.37037037037037,0)" xlink:href="#ao"/><use transform="matrix(0.06172839506172839,0,0,0.06172839506172839,77.71604938271605,0)" xlink:href="#aZ"/></g><path fill="#333" d="M199 0l-22-63H83L61 0H9l90-248h61L250 0h-51zm-33-102l-36-108c-10 38-24 72-36 108h72" id="ba"/><g id="C"><use transform="matrix(0.06172839506172839,0,0,0.06172839506172839,0,0)" xlink:href="#ba"/><use transform="matrix(0.06172839506172839,0,0,0.06172839506172839,15.987654320987653,0)" xlink:href="#aL"/><use transform="matrix(0.06172839506172839,0,0,0.06172839506172839,29.50617283950617,0)" xlink:href="#aL"/></g><g id="D"><use transform="matrix(0.06172839506172839,0,0,0.06172839506172839,0,0)" xlink:href="#aR"/><use transform="matrix(0.06172839506172839,0,0,0.06172839506172839,15.987654320987653,0)" xlink:href="#aS"/><use transform="matrix(0.06172839506172839,0,0,0.06172839506172839,28.333333333333332,0)" xlink:href="#aP"/><use transform="matrix(0.06172839506172839,0,0,0.06172839506172839,40.67901234567901,0)" xlink:href="#aT"/><use transform="matrix(0.06172839506172839,0,0,0.06172839506172839,46.851851851851855,0)" xlink:href="#aB"/></g><g id="E"><use transform="matrix(0.06172839506172839,0,0,0.06172839506172839,0,0)" xlink:href="#aV"/><use transform="matrix(0.06172839506172839,0,0,0.06172839506172839,15.987654320987653,0)" xlink:href="#aB"/><use transform="matrix(0.06172839506172839,0,0,0.06172839506172839,28.333333333333332,0)" xlink:href="#aK"/><use transform="matrix(0.06172839506172839,0,0,0.06172839506172839,41.85185185185185,0)" xlink:href="#aM"/><use transform="matrix(0.06172839506172839,0,0,0.06172839506172839,54.197530864197525,0)" xlink:href="#aE"/><use transform="matrix(0.06172839506172839,0,0,0.06172839506172839,60.37037037037037,0)" xlink:href="#aC"/></g><path fill="#333" d="M137 0h-34L2-248h35l83 218 83-218h36" id="bb"/><path fill="#333" d="M206 0h-36l-40-164L89 0H53L-1-190h32L70-26l43-164h34l41 164 42-164h31" id="bc"/><path fill="#333" d="M177-190C167-65 218 103 67 71c-23-6-38-20-44-43l32-5c15 47 100 32 89-28v-30C133-14 115 1 83 1 29 1 15-40 15-95c0-56 16-97 71-98 29-1 48 16 59 35 1-10 0-23 2-32h30zM94-22c36 0 50-32 50-73 0-42-14-75-50-75-39 0-46 34-46 75s6 73 46 73" id="bd"/><g id="F"><use transform="matrix(0.06172839506172839,0,0,0.06172839506172839,0,0)" xlink:href="#bb"/><use transform="matrix(0.06172839506172839,0,0,0.06172839506172839,14.382716049382715,0)" xlink:href="#ah"/><use transform="matrix(0.06172839506172839,0,0,0.06172839506172839,19.25925925925926,0)" xlink:href="#ae"/><use transform="matrix(0.06172839506172839,0,0,0.06172839506172839,31.604938271604937,0)" xlink:href="#bc"/><use transform="matrix(0.06172839506172839,0,0,0.06172839506172839,47.59259259259259,0)" xlink:href="#ah"/><use transform="matrix(0.06172839506172839,0,0,0.06172839506172839,52.46913580246913,0)" xlink:href="#av"/><use transform="matrix(0.06172839506172839,0,0,0.06172839506172839,64.81481481481481,0)" xlink:href="#bd"/></g><path fill="#333" d="M127-220V0H93v-220H8v-28h204v28h-85" id="be"/><path fill="#333" d="M143 0L79-87 56-68V0H24v-261h32v163l83-92h37l-77 82L181 0h-38" id="bf"/><g id="G"><use transform="matrix(0.06172839506172839,0,0,0.06172839506172839,0,0)" xlink:href="#be"/><use transform="matrix(0.06172839506172839,0,0,0.06172839506172839,11.049382716049381,0)" xlink:href="#ag"/><use transform="matrix(0.06172839506172839,0,0,0.06172839506172839,23.39506172839506,0)" xlink:href="#bf"/><use transform="matrix(0.06172839506172839,0,0,0.06172839506172839,34.50617283950617,0)" xlink:href="#ah"/><use transform="matrix(0.06172839506172839,0,0,0.06172839506172839,39.382716049382715,0)" xlink:href="#av"/><use transform="matrix(0.06172839506172839,0,0,0.06172839506172839,51.72839506172839,0)" xlink:href="#bd"/></g><g id="H"><use transform="matrix(0.06172839506172839,0,0,0.06172839506172839,0,0)" xlink:href="#at"/><use transform="matrix(0.06172839506172839,0,0,0.06172839506172839,14.814814814814813,0)" xlink:href="#ae"/><use transform="matrix(0.06172839506172839,0,0,0.06172839506172839,27.160493827160494,0)" xlink:href="#ai"/><use transform="matrix(0.06172839506172839,0,0,0.06172839506172839,34.50617283950617,0)" xlink:href="#au"/><use transform="matrix(0.06172839506172839,0,0,0.06172839506172839,52.96296296296296,0)" xlink:href="#ah"/><use transform="matrix(0.06172839506172839,0,0,0.06172839506172839,57.839506172839506,0)" xlink:href="#ar"/><use transform="matrix(0.06172839506172839,0,0,0.06172839506172839,68.95061728395062,0)" xlink:href="#ar"/><use transform="matrix(0.06172839506172839,0,0,0.06172839506172839,80.06172839506173,0)" xlink:href="#ah"/><use transform="matrix(0.06172839506172839,0,0,0.06172839506172839,84.93827160493828,0)" xlink:href="#aq"/><use transform="matrix(0.06172839506172839,0,0,0.06172839506172839,97.28395061728396,0)" xlink:href="#av"/></g><g id="I"><use transform="matrix(0.06172839506172839,0,0,0.06172839506172839,0,0)" xlink:href="#aX"/><use transform="matrix(0.06172839506172839,0,0,0.06172839506172839,6.172839506172839,0)" xlink:href="#ai"/><use transform="matrix(0.06172839506172839,0,0,0.06172839506172839,13.518518518518519,0)" xlink:href="#aq"/><use transform="matrix(0.06172839506172839,0,0,0.06172839506172839,25.864197530864196,0)" xlink:href="#au"/></g><path fill="#333" d="M240 0l2-218c-23 76-54 145-80 218h-23L58-218 59 0H30v-248h44l77 211c21-75 51-140 76-211h43V0h-30" id="bg"/><g id="J"><use transform="matrix(0.06172839506172839,0,0,0.06172839506172839,0,0)" xlink:href="#bg"/><use transform="matrix(0.06172839506172839,0,0,0.06172839506172839,18.456790123456788,0)" xlink:href="#ag"/><use transform="matrix(0.06172839506172839,0,0,0.06172839506172839,30.80246913580247,0)" xlink:href="#av"/><use transform="matrix(0.06172839506172839,0,0,0.06172839506172839,43.148148148148145,0)" xlink:href="#ag"/><use transform="matrix(0.06172839506172839,0,0,0.06172839506172839,55.49382716049382,0)" xlink:href="#bd"/><use transform="matrix(0.06172839506172839,0,0,0.06172839506172839,67.8395061728395,0)" xlink:href="#ae"/><use transform="matrix(0.06172839506172839,0,0,0.06172839506172839,80.18518518518519,0)" xlink:href="#ai"/></g><g id="K"><use transform="matrix(0.06172839506172839,0,0,0.06172839506172839,0,0)" xlink:href="#ap"/><use transform="matrix(0.06172839506172839,0,0,0.06172839506172839,6.172839506172839,0)" xlink:href="#aq"/></g><g id="L"><use transform="matrix(0.06172839506172839,0,0,0.06172839506172839,0,0)" xlink:href="#as"/><use transform="matrix(0.06172839506172839,0,0,0.06172839506172839,14.814814814814813,0)" xlink:href="#ao"/><use transform="matrix(0.06172839506172839,0,0,0.06172839506172839,27.160493827160494,0)" xlink:href="#ao"/></g><g id="M"><use transform="matrix(0.06172839506172839,0,0,0.06172839506172839,0,0)" xlink:href="#be"/><use transform="matrix(0.06172839506172839,0,0,0.06172839506172839,11.049382716049381,0)" xlink:href="#aq"/></g><g id="N"><use transform="matrix(0.06172839506172839,0,0,0.06172839506172839,0,0)" xlink:href="#aj"/><use transform="matrix(0.06172839506172839,0,0,0.06172839506172839,15.987654320987653,0)" xlink:href="#ax"/><use transform="matrix(0.06172839506172839,0,0,0.06172839506172839,28.333333333333332,0)" xlink:href="#ae"/><use transform="matrix(0.06172839506172839,0,0,0.06172839506172839,40.67901234567901,0)" xlink:href="#al"/><use transform="matrix(0.06172839506172839,0,0,0.06172839506172839,51.79012345679013,0)" xlink:href="#bf"/></g><g id="O"><use transform="matrix(0.06172839506172839,0,0,0.06172839506172839,0,0)" xlink:href="#ah"/><use transform="matrix(0.06172839506172839,0,0,0.06172839506172839,4.876543209876543,0)" xlink:href="#av"/></g><g id="P"><use transform="matrix(0.06172839506172839,0,0,0.06172839506172839,0,0)" xlink:href="#ap"/><use transform="matrix(0.06172839506172839,0,0,0.06172839506172839,6.172839506172839,0)" xlink:href="#ax"/><use transform="matrix(0.06172839506172839,0,0,0.06172839506172839,18.51851851851852,0)" xlink:href="#ae"/></g><g id="Q"><use transform="matrix(0.06172839506172839,0,0,0.06172839506172839,0,0)" xlink:href="#aw"/><use transform="matrix(0.06172839506172839,0,0,0.06172839506172839,14.814814814814813,0)" xlink:href="#ag"/><use transform="matrix(0.06172839506172839,0,0,0.06172839506172839,27.160493827160494,0)" xlink:href="#ap"/><use transform="matrix(0.06172839506172839,0,0,0.06172839506172839,33.333333333333336,0)" xlink:href="#al"/><use transform="matrix(0.06172839506172839,0,0,0.06172839506172839,44.44444444444444,0)" xlink:href="#ax"/></g><g id="R"><use transform="matrix(0.06172839506172839,0,0,0.06172839506172839,0,0)" xlink:href="#ah"/><use transform="matrix(0.06172839506172839,0,0,0.06172839506172839,4.876543209876543,0)" xlink:href="#aX"/></g><g id="S"><use transform="matrix(0.06172839506172839,0,0,0.06172839506172839,0,0)" xlink:href="#ap"/><use transform="matrix(0.06172839506172839,0,0,0.06172839506172839,6.172839506172839,0)" xlink:href="#ax"/><use transform="matrix(0.06172839506172839,0,0,0.06172839506172839,18.51851851851852,0)" xlink:href="#ae"/><use transform="matrix(0.06172839506172839,0,0,0.06172839506172839,30.864197530864196,0)" xlink:href="#ak"/></g><g id="T"><use transform="matrix(0.06172839506172839,0,0,0.06172839506172839,0,0)" xlink:href="#av"/><use transform="matrix(0.06172839506172839,0,0,0.06172839506172839,12.345679012345679,0)" xlink:href="#ae"/><use transform="matrix(0.06172839506172839,0,0,0.06172839506172839,24.691358024691358,0)" xlink:href="#ae"/><use transform="matrix(0.06172839506172839,0,0,0.06172839506172839,37.03703703703704,0)" xlink:href="#ao"/></g><g id="U"><use transform="matrix(0.06172839506172839,0,0,0.06172839506172839,0,0)" xlink:href="#ad"/><use transform="matrix(0.06172839506172839,0,0,0.06172839506172839,15.987654320987653,0)" xlink:href="#ae"/><use transform="matrix(0.06172839506172839,0,0,0.06172839506172839,28.333333333333332,0)" xlink:href="#af"/><use transform="matrix(0.06172839506172839,0,0,0.06172839506172839,40.67901234567901,0)" xlink:href="#ag"/><use transform="matrix(0.06172839506172839,0,0,0.06172839506172839,53.02469135802469,0)" xlink:href="#ah"/><use transform="matrix(0.06172839506172839,0,0,0.06172839506172839,57.901234567901234,0)" xlink:href="#ai"/><use transform="matrix(0.06172839506172839,0,0,0.06172839506172839,65.24691358024691,0)" xlink:href="#ah"/><use transform="matrix(0.06172839506172839,0,0,0.06172839506172839,70.12345679012346,0)" xlink:href="#av"/><use transform="matrix(0.06172839506172839,0,0,0.06172839506172839,82.46913580246914,0)" xlink:href="#bd"/></g><g id="V"><use transform="matrix(0.055555555555555546,0,0,0.055555555555555546,0,0)" xlink:href="#an"/><use transform="matrix(0.055555555555555546,0,0,0.055555555555555546,14.388888888888886,0)" xlink:href="#af"/><use transform="matrix(0.055555555555555546,0,0,0.055555555555555546,25.499999999999993,0)" xlink:href="#ao"/><use transform="matrix(0.055555555555555546,0,0,0.055555555555555546,36.6111111111111,0)" xlink:href="#ag"/><use transform="matrix(0.055555555555555546,0,0,0.055555555555555546,47.72222222222221,0)" xlink:href="#ap"/><use transform="matrix(0.055555555555555546,0,0,0.055555555555555546,53.277777777777764,0)" xlink:href="#ah"/><use transform="matrix(0.055555555555555546,0,0,0.055555555555555546,57.66666666666666,0)" xlink:href="#av"/><use transform="matrix(0.055555555555555546,0,0,0.055555555555555546,68.77777777777776,0)" xlink:href="#bd"/></g><g id="W"><use transform="matrix(0.055555555555555546,0,0,0.055555555555555546,0,0)" xlink:href="#al"/><use transform="matrix(0.055555555555555546,0,0,0.055555555555555546,9.999999999999998,0)" xlink:href="#ak"/><use transform="matrix(0.055555555555555546,0,0,0.055555555555555546,19.999999999999996,0)" xlink:href="#al"/><use transform="matrix(0.055555555555555546,0,0,0.055555555555555546,29.999999999999993,0)" xlink:href="#am"/><use transform="matrix(0.055555555555555546,0,0,0.055555555555555546,34.38888888888888,0)" xlink:href="#ae"/></g><g id="X"><use transform="matrix(0.055555555555555546,0,0,0.055555555555555546,0,0)" xlink:href="#ad"/><use transform="matrix(0.055555555555555546,0,0,0.055555555555555546,14.388888888888886,0)" xlink:href="#ae"/><use transform="matrix(0.055555555555555546,0,0,0.055555555555555546,25.499999999999993,0)" xlink:href="#al"/><use transform="matrix(0.055555555555555546,0,0,0.055555555555555546,35.49999999999999,0)" xlink:href="#aq"/><use transform="matrix(0.055555555555555546,0,0,0.055555555555555546,46.6111111111111,0)" xlink:href="#ai"/><use transform="matrix(0.055555555555555546,0,0,0.055555555555555546,53.22222222222221,0)" xlink:href="#ao"/><use transform="matrix(0.055555555555555546,0,0,0.055555555555555546,64.33333333333331,0)" xlink:href="#ar"/></g><g id="Y"><use transform="matrix(0.055555555555555546,0,0,0.055555555555555546,0,0)" xlink:href="#ag"/><use transform="matrix(0.055555555555555546,0,0,0.055555555555555546,11.111111111111109,0)" xlink:href="#aX"/><use transform="matrix(0.055555555555555546,0,0,0.055555555555555546,16.666666666666664,0)" xlink:href="#ap"/><use transform="matrix(0.055555555555555546,0,0,0.055555555555555546,22.222222222222218,0)" xlink:href="#ae"/><use transform="matrix(0.055555555555555546,0,0,0.055555555555555546,33.33333333333333,0)" xlink:href="#ai"/></g><g id="Z"><use transform="matrix(0.055555555555555546,0,0,0.055555555555555546,0,0)" xlink:href="#ap"/><use transform="matrix(0.055555555555555546,0,0,0.055555555555555546,5.5555555555555545,0)" xlink:href="#ax"/><use transform="matrix(0.055555555555555546,0,0,0.055555555555555546,16.666666666666664,0)" xlink:href="#ae"/></g><g id="aa"><use transform="matrix(0.055555555555555546,0,0,0.055555555555555546,0,0)" xlink:href="#af"/><use transform="matrix(0.055555555555555546,0,0,0.055555555555555546,11.111111111111109,0)" xlink:href="#ai"/><use transform="matrix(0.055555555555555546,0,0,0.055555555555555546,17.722222222222218,0)" xlink:href="#aq"/><use transform="matrix(0.055555555555555546,0,0,0.055555555555555546,28.83333333333333,0)" xlink:href="#al"/><use transform="matrix(0.055555555555555546,0,0,0.055555555555555546,38.83333333333333,0)" xlink:href="#ae"/><use transform="matrix(0.055555555555555546,0,0,0.055555555555555546,49.944444444444436,0)" xlink:href="#ar"/><use transform="matrix(0.055555555555555546,0,0,0.055555555555555546,59.944444444444436,0)" xlink:href="#ar"/></g><g id="ab"><use transform="matrix(0.055555555555555546,0,0,0.055555555555555546,0,0)" xlink:href="#ah"/><use transform="matrix(0.055555555555555546,0,0,0.055555555555555546,4.388888888888888,0)" xlink:href="#ar"/></g><g id="ac"><use transform="matrix(0.055555555555555546,0,0,0.055555555555555546,0,0)" xlink:href="#al"/><use transform="matrix(0.055555555555555546,0,0,0.055555555555555546,9.999999999999998,0)" xlink:href="#aq"/><use transform="matrix(0.055555555555555546,0,0,0.055555555555555546,21.111111111111107,0)" xlink:href="#au"/><use transform="matrix(0.055555555555555546,0,0,0.055555555555555546,37.722222222222214,0)" xlink:href="#af"/><use transform="matrix(0.055555555555555546,0,0,0.055555555555555546,48.83333333333332,0)" xlink:href="#am"/><use transform="matrix(0.055555555555555546,0,0,0.055555555555555546,53.22222222222221,0)" xlink:href="#ae"/><use transform="matrix(0.055555555555555546,0,0,0.055555555555555546,64.33333333333331,0)" xlink:href="#ap"/><use transform="matrix(0.055555555555555546,0,0,0.055555555555555546,69.88888888888887,0)" xlink:href="#ae"/><use transform="matrix(0.055555555555555546,0,0,0.055555555555555546,80.99999999999999,0)" xlink:href="#ao"/></g></defs></g></svg>